<?xml version="1.0" encoding="UTF-8" standalone="no"?>
<svg
   version="1.1"
   width="150pt"
   height="150pt"
   viewBox="0 0 150 150.00001"
   id="svg89"
   sodipodi:docname="multiplex_site.svg"
   inkscape:version="1.3.2 (1:1.3.2+202311252150+091e20ef0f)"
   xmlns:inkscape="http://www.inkscape.org/namespaces/inkscape"
   xmlns:sodipodi="http://sodipodi.sourceforge.net/DTD/sodipodi-0.dtd"
   xmlns="http://www.w3.org/2000/svg"
   xmlns:svg="http://www.w3.org/2000/svg">
  <sodipodi:namedview
     id="namedview89"
     pagecolor="#ffffff"
     bordercolor="#999999"
     borderopacity="1"
     inkscape:showpageshadow="0"
     inkscape:pageopacity="0"
     inkscape:pagecheckerboard="0"
     inkscape:deskcolor="#d1d1d1"
     inkscape:document-units="pt"
     showguides="true"
     inkscape:lockguides="false"
     inkscape:zoom="1.8392693"
     inkscape:cx="222.91461"
     inkscape:cy="155.76838"
     inkscape:window-width="1920"
     inkscape:window-height="1043"
     inkscape:window-x="1920"
     inkscape:window-y="0"
     inkscape:window-maximized="1"
     inkscape:current-layer="g89">
    <sodipodi:guide
       position="-248.10627,252.57216"
       orientation="1,0"
       id="guide89"
       inkscape:locked="false" />
    <sodipodi:guide
       position="-248.10639,39.778855"
       orientation="1,0"
       id="guide90"
       inkscape:locked="false" />
    <sodipodi:guide
       position="326.26176,362.14004"
       orientation="0,-1"
       id="guide91"
       inkscape:locked="false" />
  </sodipodi:namedview>
  <defs
     id="defs30">
    <clipPath
       id="clip_0">
      <path
         d="m 31.688,57.133 h 6 v 24.742 h -6 z"
         id="path1" />
    </clipPath>
    <clipPath
       id="clip_1">
      <path
         d="M 0,0 H 721 V 149 H 0 Z"
         id="path2" />
    </clipPath>
    <clipPath
       id="clip_2">
      <path
         d="m 48.688,57.133 h 6 v 24.742 h -6 z"
         id="path3" />
    </clipPath>
    <clipPath
       id="clip_3">
      <path
         d="M 0,0 H 721 V 149 H 0 Z"
         id="path4" />
    </clipPath>
    <clipPath
       id="clip_4">
      <path
         d="m 580.934,97.625 h 8 v 12.066 h -8 z"
         id="path5" />
    </clipPath>
    <clipPath
       id="clip_5">
      <path
         d="M 0,0 H 721 V 149 H 0 Z"
         id="path6" />
    </clipPath>
    <clipPath
       id="clip_6">
      <path
         d="m 308.387,79.812 h 8 v 12.066 h -8 z"
         id="path7" />
    </clipPath>
    <clipPath
       id="clip_7">
      <path
         d="M 0,0 H 721 V 149 H 0 Z"
         id="path8" />
    </clipPath>
    <clipPath
       id="clip_8">
      <path
         d="m 310.316,110.086 h 6 v 24.742 h -6 z"
         id="path9" />
    </clipPath>
    <clipPath
       id="clip_9">
      <path
         d="M 0,0 H 721 V 149 H 0 Z"
         id="path10" />
    </clipPath>
    <clipPath
       id="clip_10">
      <path
         d="m 327.316,110.086 h 6 v 24.742 h -6 z"
         id="path11" />
    </clipPath>
    <clipPath
       id="clip_11">
      <path
         d="M 0,0 H 721 V 149 H 0 Z"
         id="path12" />
    </clipPath>
    <clipPath
       id="clip_12">
      <path
         d="m 557.68,44.484 h 6 v 24.742 h -6 z"
         id="path13" />
    </clipPath>
    <clipPath
       id="clip_13">
      <path
         d="M 0,0 H 721 V 149 H 0 Z"
         id="path14" />
    </clipPath>
    <clipPath
       id="clip_14">
      <path
         d="m 574.68,44.484 h 6 v 24.742 h -6 z"
         id="path15" />
    </clipPath>
    <clipPath
       id="clip_15">
      <path
         d="M 0,0 H 721 V 149 H 0 Z"
         id="path16" />
    </clipPath>
    <clipPath
       id="clip_16">
      <path
         d="m 98.484,0.219 h 28 v 16.934 h -28 z"
         id="path17" />
    </clipPath>
    <clipPath
       id="clip_17">
      <path
         d="M 0,0 H 721 V 149 H 0 Z"
         id="path18" />
    </clipPath>
    <clipPath
       id="clip_18">
      <path
         d="m 136.484,0.219 h 8 v 16.934 h -8 z"
         id="path19" />
    </clipPath>
    <clipPath
       id="clip_19">
      <path
         d="M 0,0 H 721 V 149 H 0 Z"
         id="path20" />
    </clipPath>
    <clipPath
       id="clip_20">
      <path
         d="m 360.031,0 h 28 v 16.934 h -28 z"
         id="path21" />
    </clipPath>
    <clipPath
       id="clip_21">
      <path
         d="M 0,0 H 721 V 149 H 0 Z"
         id="path22" />
    </clipPath>
    <clipPath
       id="clip_22">
      <path
         d="m 397.031,0 h 10 v 16.934 h -10 z"
         id="path23" />
    </clipPath>
    <clipPath
       id="clip_23">
      <path
         d="M 0,0 H 721 V 149 H 0 Z"
         id="path24" />
    </clipPath>
    <clipPath
       id="clip_24">
      <path
         d="m 626.84,0.438 h 28 v 16.934 h -28 z"
         id="path25" />
    </clipPath>
    <clipPath
       id="clip_25">
      <path
         d="M 0,0 H 721 V 149 H 0 Z"
         id="path26" />
    </clipPath>
    <clipPath
       id="clip_26">
      <path
         d="m 663.84,0.438 h 10 v 16.934 h -10 z"
         id="path27" />
    </clipPath>
    <clipPath
       id="clip_27">
      <path
         d="M 0,0 H 721 V 149 H 0 Z"
         id="path28" />
    </clipPath>
    <clipPath
       id="clip_28">
      <path
         d="m 55.102,115.164 h 6 v 12.066 h -6 z"
         id="path29" />
    </clipPath>
    <clipPath
       id="clip_29">
      <path
         d="M 0,0 H 721 V 149 H 0 Z"
         id="path30" />
    </clipPath>
  </defs>
  <g
     id="g89"
     transform="matrix(0.802646,0,0,2.67042,-35.895552,-161.87924)">
    <path
       stroke-width="0.42646"
       stroke-linecap="round"
       stroke-linejoin="round"
       fill="none"
       stroke="#000000"
       d="M 216.31131,77.670379 203.85438,103.28318 H 162.88716 L 149.64728,77.513201"
       id="path31" />
    <path
       stroke-width="0.56128"
       stroke-linecap="butt"
       stroke-dasharray="6.19662, 6.19662"
       stroke-miterlimit="4"
       stroke-linejoin="miter"
       fill="none"
       stroke="#000000"
       d="m 154.23568,85.916535 h 57.46748"
       id="path32" />
    <path
       stroke-width="0.271734"
       stroke-linecap="butt"
       stroke-miterlimit="4"
       stroke-linejoin="miter"
       fill="none"
       stroke="#000000"
       d="m 162.96612,103.20719 -0.50409,-0.0892"
       id="path33" />
    <path
       d="m 159.69208,96.462523 47.13368,-0.077 -3.65919,7.127757 -39.77735,-0.12969 z m 0,0"
       fill="#1d53b3"
       id="path34"
       style="stroke-width:0.362312" />
    <path
       stroke-width="0.271734"
       stroke-linecap="butt"
       stroke-miterlimit="4"
       stroke-linejoin="miter"
       fill="none"
       stroke="#000000"
       d="m 159.69208,96.462523 47.13368,-0.077 -3.65919,7.127757 -39.77735,-0.12969 z m 0,0"
       id="path35" />
    <path
       stroke-width="0.408497"
       stroke-linecap="round"
       stroke-linejoin="round"
       fill="none"
       stroke="#000000"
       d="M 128.60846,77.714715 117.22052,103.41716 H 79.762789 L 67.656644,77.556986"
       id="path36" />
    <path
       stroke-width="0.260288"
       stroke-linecap="butt"
       stroke-miterlimit="4"
       stroke-linejoin="miter"
       fill="none"
       stroke="#000000"
       d="m 79.834973,103.33985 -0.460903,-0.0885"
       id="path37" />
    <path
       d="m 71.522149,85.997798 53.073291,-0.184016 -8.05496,17.934468 -36.573009,-0.13376 z m 0,0"
       fill="#a01725"
       id="path38"
       style="stroke-width:0.348786" />
    <path
       stroke-width="0.263879"
       stroke-linecap="butt"
       stroke-miterlimit="4"
       stroke-linejoin="miter"
       fill="none"
       stroke="#000000"
       d="m 71.749257,85.996757 52.846183,-0.182975 -8.02048,17.832928 -36.416519,-0.133 z m 0,0"
       id="path39" />
    <path
       stroke-width="0.559398"
       stroke-linecap="butt"
       stroke-dasharray="6.44746, 6.44746"
       stroke-miterlimit="4"
       stroke-linejoin="miter"
       fill="none"
       stroke="#000000"
       d="M 76.233809,94.630693 H 120.88276"
       id="path40" />
    <g
       inkscape:label=""
       transform="matrix(1.24588,0,0,0.374473,-26.296916,67.920818)"
       id="g112" />
    <g
       inkscape:label=""
       transform="matrix(0.64344152,0,0,0.24402038,83.465709,79.077565)"
       id="g137">
      <g
         id="g136"
         transform="translate(-3.08675,-2.00225)">
        <g
           style="fill:#000000;fill-opacity:1"
           id="g9">
          <g
             id="use8"
             transform="translate(1.993,17.471001)">
            <path
               style="stroke:none"
               d="m 18.65625,-11.8125 c 0.46875,-0.8125 0.921875,-1.578125 2.171875,-1.703125 C 21,-13.53125 21.1875,-13.546875 21.1875,-13.875 c 0,-0.234375 -0.1875,-0.234375 -0.234375,-0.234375 -0.04687,0 -0.1875,0.04687 -1.5625,0.04687 -0.609375,0 -1.25,-0.04687 -1.859375,-0.04687 -0.125,0 -0.359375,0 -0.359375,0.390625 0,0.1875 0.15625,0.203125 0.28125,0.203125 0.421875,0.03125 1.078125,0.15625 1.078125,0.796875 0,0.265625 -0.07813,0.40625 -0.296875,0.765625 l -5.640625,9.859375 -0.734375,-10.75 c 0,-0.25 0.21875,-0.640625 1.375,-0.671875 0.28125,0 0.484375,0 0.484375,-0.390625 0,-0.203125 -0.203125,-0.203125 -0.3125,-0.203125 -0.71875,0 -1.484375,0.04687 -2.234375,0.04687 H 10.09375 c -0.296875,0 -0.671875,-0.04687 -0.984375,-0.04687 -0.125,0 -0.375,0 -0.375,0.390625 0,0.203125 0.140625,0.203125 0.5,0.203125 0.953125,0 0.953125,0.03125 1.03125,1.28125 l 0.0625,0.75 L 4.984375,-2.09375 4.21875,-12.75 c 0,-0.21875 0,-0.734375 1.40625,-0.765625 0.21875,0 0.453125,0 0.453125,-0.359375 0,-0.234375 -0.1875,-0.234375 -0.3125,-0.234375 -0.71875,0 -1.484375,0.04687 -2.234375,0.04687 H 2.453125 c -0.3125,0 -0.671875,-0.04687 -0.984375,-0.04687 -0.125,0 -0.375,0 -0.375,0.390625 0,0.203125 0.171875,0.203125 0.453125,0.203125 0.96875,0 1,0.125 1.03125,0.796875 l 0.90625,12.671875 C 3.515625,0.3125 3.53125,0.4375 3.78125,0.4375 c 0.203125,0 0.25,-0.09375 0.4375,-0.390625 L 10.375,-10.71875 11.140625,-0.046875 c 0.01563,0.359375 0.03125,0.484375 0.28125,0.484375 0.203125,0 0.265625,-0.109375 0.4375,-0.390625 z m 0,0"
               id="path132" />
          </g>
        </g>
        <g
           style="fill:#000000;fill-opacity:1"
           id="g10">
          <g
             id="use9"
             transform="translate(21.093,20.57)">
            <path
               style="stroke:none"
               d="m 4.125,-9.1875 c 0,-0.34375 0,-0.34375 -0.28125,-0.34375 C 3.5,-9.15625 2.78125,-8.625 1.3125,-8.625 v 0.421875 c 0.328125,0 1.046875,0 1.828125,-0.375 v 7.46875 c 0,0.515625 -0.046875,0.6875 -1.296875,0.6875 H 1.390625 V 0 c 0.390625,-0.03125 1.78125,-0.03125 2.25,-0.03125 0.46875,0 1.859375,0 2.234375,0.03125 V -0.421875 H 5.4375 c -1.265625,0 -1.3125,-0.171875 -1.3125,-0.6875 z m 0,0"
               id="path133" />
          </g>
        </g>
        <g
           style="fill:#000000;fill-opacity:1"
           id="g11">
          <g
             id="use10"
             transform="translate(28.615,17.471001)">
            <path
               style="stroke:none"
               d="m 6.328125,5.046875 c 0,-0.03125 0,-0.0625 -0.0625,-0.125 -0.953125,-0.96875 -3.5,-3.625 -3.5,-10.0625 0,-6.453125 2.5,-9.078125 3.515625,-10.109375 0,-0.01563 0.046875,-0.0625 0.046875,-0.125 0,-0.0625 -0.0625,-0.09375 -0.15625,-0.09375 -0.21875,0 -1.984375,1.53125 -2.984375,3.796875 -1.046875,2.296875 -1.328125,4.53125 -1.328125,6.5 0,1.5 0.140625,4.015625 1.390625,6.6875 0.984375,2.140625 2.671875,3.65625 2.921875,3.65625 0.109375,0 0.15625,-0.046875 0.15625,-0.125 z m 0,0"
               id="path134" />
          </g>
        </g>
        <g
           style="fill:#000000;fill-opacity:1"
           id="g12">
          <g
             id="use11"
             transform="translate(35.931999,17.471001)">
            <path
               style="stroke:none"
               d="m 4.15625,-8.296875 h 1.890625 c 0.390625,0 0.609375,0 0.609375,-0.375 0,-0.234375 -0.125,-0.234375 -0.546875,-0.234375 h -1.8125 L 5.0625,-11.921875 c 0.078125,-0.28125 0.078125,-0.328125 0.078125,-0.46875 0,-0.328125 -0.265625,-0.515625 -0.53125,-0.515625 -0.171875,0 -0.640625,0.0625 -0.8125,0.71875 L 3,-8.90625 H 1.046875 c -0.40625,0 -0.59375,0 -0.59375,0.390625 0,0.21875 0.140625,0.21875 0.53125,0.21875 h 1.84375 L 1.46875,-2.84375 c -0.171875,0.71875 -0.234375,0.921875 -0.234375,1.1875 0,0.96875 0.6875,1.859375 1.84375,1.859375 2.09375,0 3.203125,-3.015625 3.203125,-3.15625 0,-0.125 -0.078125,-0.1875 -0.203125,-0.1875 -0.046875,0 -0.125,0 -0.171875,0.078125 -0.015625,0.03125 -0.046875,0.046875 -0.1875,0.375 -0.4375,1.03125 -1.375,2.484375 -2.578125,2.484375 -0.625,0 -0.65625,-0.515625 -0.65625,-0.96875 0,-0.03125 0,-0.421875 0.0625,-0.671875 z m 0,0"
               id="path135" />
          </g>
        </g>
        <g
           style="fill:#000000;fill-opacity:1"
           id="g13">
          <g
             id="use12"
             transform="translate(43.237999,17.471001)">
            <path
               style="stroke:none"
               d="m 5.4375,-5.140625 c 0,-1.484375 -0.15625,-4.015625 -1.390625,-6.671875 -0.984375,-2.15625 -2.6875,-3.65625 -2.9375,-3.65625 -0.0625,0 -0.140625,0.01563 -0.140625,0.125 0,0.03125 0.015625,0.0625 0.046875,0.09375 C 2,-14.21875 4.53125,-11.59375 4.53125,-5.171875 4.53125,1.28125 2.03125,3.90625 1.015625,4.9375 0.984375,4.984375 0.96875,5 0.96875,5.046875 c 0,0.09375 0.078125,0.125 0.140625,0.125 0.234375,0 1.984375,-1.53125 3,-3.8125 1.03125,-2.28125 1.328125,-4.515625 1.328125,-6.5 z m 0,0"
               id="path136" />
          </g>
        </g>
      </g>
    </g>
    <g
       inkscape:label=""
       transform="matrix(0.64344152,0,0,0.24402038,168.31245,90.098492)"
       id="g149">
      <g
         id="g148"
         transform="translate(-3.08675,-2.00225)">
        <g
           style="fill:#000000;fill-opacity:1"
           id="g139">
          <g
             id="g138"
             transform="translate(1.993,17.471001)">
            <path
               style="stroke:none"
               d="m 18.65625,-11.8125 c 0.46875,-0.8125 0.921875,-1.578125 2.171875,-1.703125 C 21,-13.53125 21.1875,-13.546875 21.1875,-13.875 c 0,-0.234375 -0.1875,-0.234375 -0.234375,-0.234375 -0.04687,0 -0.1875,0.04687 -1.5625,0.04687 -0.609375,0 -1.25,-0.04687 -1.859375,-0.04687 -0.125,0 -0.359375,0 -0.359375,0.390625 0,0.1875 0.15625,0.203125 0.28125,0.203125 0.421875,0.03125 1.078125,0.15625 1.078125,0.796875 0,0.265625 -0.07813,0.40625 -0.296875,0.765625 l -5.640625,9.859375 -0.734375,-10.75 c 0,-0.25 0.21875,-0.640625 1.375,-0.671875 0.28125,0 0.484375,0 0.484375,-0.390625 0,-0.203125 -0.203125,-0.203125 -0.3125,-0.203125 -0.71875,0 -1.484375,0.04687 -2.234375,0.04687 H 10.09375 c -0.296875,0 -0.671875,-0.04687 -0.984375,-0.04687 -0.125,0 -0.375,0 -0.375,0.390625 0,0.203125 0.140625,0.203125 0.5,0.203125 0.953125,0 0.953125,0.03125 1.03125,1.28125 l 0.0625,0.75 L 4.984375,-2.09375 4.21875,-12.75 c 0,-0.21875 0,-0.734375 1.40625,-0.765625 0.21875,0 0.453125,0 0.453125,-0.359375 0,-0.234375 -0.1875,-0.234375 -0.3125,-0.234375 -0.71875,0 -1.484375,0.04687 -2.234375,0.04687 H 2.453125 c -0.3125,0 -0.671875,-0.04687 -0.984375,-0.04687 -0.125,0 -0.375,0 -0.375,0.390625 0,0.203125 0.171875,0.203125 0.453125,0.203125 0.96875,0 1,0.125 1.03125,0.796875 l 0.90625,12.671875 C 3.515625,0.3125 3.53125,0.4375 3.78125,0.4375 c 0.203125,0 0.25,-0.09375 0.4375,-0.390625 L 10.375,-10.71875 11.140625,-0.046875 c 0.01563,0.359375 0.03125,0.484375 0.28125,0.484375 0.203125,0 0.265625,-0.109375 0.4375,-0.390625 z m 0,0"
               id="path137" />
          </g>
        </g>
        <g
           style="fill:#000000;fill-opacity:1"
           id="g141">
          <g
             id="g140"
             transform="translate(21.093,20.57)">
            <path
               style="stroke:none"
               d="M 6.3125,-2.40625 H 6 c -0.046875,0.234375 -0.15625,1.03125 -0.3125,1.265625 -0.09375,0.125 -0.90625,0.125 -1.34375,0.125 H 1.6875 c 0.390625,-0.328125 1.265625,-1.25 1.640625,-1.59375 2.1875,-2.015625 2.984375,-2.75 2.984375,-4.171875 0,-1.65625 -1.3125,-2.75 -2.96875,-2.75 -1.671875,0 -2.640625,1.40625 -2.640625,2.640625 0,0.734375 0.625,0.734375 0.671875,0.734375 0.296875,0 0.671875,-0.21875 0.671875,-0.671875 C 2.046875,-7.234375 1.78125,-7.5 1.375,-7.5 1.25,-7.5 1.21875,-7.5 1.171875,-7.484375 1.453125,-8.46875 2.21875,-9.125 3.15625,-9.125 4.375,-9.125 5.125,-8.109375 5.125,-6.78125 5.125,-5.5625 4.421875,-4.5 3.59375,-3.578125 L 0.703125,-0.34375 V 0 H 5.9375 Z m 0,0"
               id="path139" />
          </g>
        </g>
        <g
           style="fill:#000000;fill-opacity:1"
           id="g143">
          <g
             id="g142"
             transform="translate(28.615,17.471001)">
            <path
               style="stroke:none"
               d="m 6.328125,5.046875 c 0,-0.03125 0,-0.0625 -0.0625,-0.125 -0.953125,-0.96875 -3.5,-3.625 -3.5,-10.0625 0,-6.453125 2.5,-9.078125 3.515625,-10.109375 0,-0.01563 0.046875,-0.0625 0.046875,-0.125 0,-0.0625 -0.0625,-0.09375 -0.15625,-0.09375 -0.21875,0 -1.984375,1.53125 -2.984375,3.796875 -1.046875,2.296875 -1.328125,4.53125 -1.328125,6.5 0,1.5 0.140625,4.015625 1.390625,6.6875 0.984375,2.140625 2.671875,3.65625 2.921875,3.65625 0.109375,0 0.15625,-0.046875 0.15625,-0.125 z m 0,0"
               id="path141" />
          </g>
        </g>
        <g
           style="fill:#000000;fill-opacity:1"
           id="g145">
          <g
             id="g144"
             transform="translate(35.931999,17.471001)">
            <path
               style="stroke:none"
               d="m 4.15625,-8.296875 h 1.890625 c 0.390625,0 0.609375,0 0.609375,-0.375 0,-0.234375 -0.125,-0.234375 -0.546875,-0.234375 h -1.8125 L 5.0625,-11.921875 c 0.078125,-0.28125 0.078125,-0.328125 0.078125,-0.46875 0,-0.328125 -0.265625,-0.515625 -0.53125,-0.515625 -0.171875,0 -0.640625,0.0625 -0.8125,0.71875 L 3,-8.90625 H 1.046875 c -0.40625,0 -0.59375,0 -0.59375,0.390625 0,0.21875 0.140625,0.21875 0.53125,0.21875 h 1.84375 L 1.46875,-2.84375 c -0.171875,0.71875 -0.234375,0.921875 -0.234375,1.1875 0,0.96875 0.6875,1.859375 1.84375,1.859375 2.09375,0 3.203125,-3.015625 3.203125,-3.15625 0,-0.125 -0.078125,-0.1875 -0.203125,-0.1875 -0.046875,0 -0.125,0 -0.171875,0.078125 -0.015625,0.03125 -0.046875,0.046875 -0.1875,0.375 -0.4375,1.03125 -1.375,2.484375 -2.578125,2.484375 -0.625,0 -0.65625,-0.515625 -0.65625,-0.96875 0,-0.03125 0,-0.421875 0.0625,-0.671875 z m 0,0"
               id="path143" />
          </g>
        </g>
        <g
           style="fill:#000000;fill-opacity:1"
           id="g147">
          <g
             id="g146"
             transform="translate(43.237999,17.471001)">
            <path
               style="stroke:none"
               d="m 5.4375,-5.140625 c 0,-1.484375 -0.15625,-4.015625 -1.390625,-6.671875 -0.984375,-2.15625 -2.6875,-3.65625 -2.9375,-3.65625 -0.0625,0 -0.140625,0.01563 -0.140625,0.125 0,0.03125 0.015625,0.0625 0.046875,0.09375 C 2,-14.21875 4.53125,-11.59375 4.53125,-5.171875 4.53125,1.28125 2.03125,3.90625 1.015625,4.9375 0.984375,4.984375 0.96875,5 0.96875,5.046875 c 0,0.09375 0.078125,0.125 0.140625,0.125 0.234375,0 1.984375,-1.53125 3,-3.8125 1.03125,-2.28125 1.328125,-4.515625 1.328125,-6.5 z m 0,0"
               id="path145" />
          </g>
        </g>
      </g>
    </g>
    <g
       inkscape:label=""
       transform="matrix(0.64344152,0,0,0.24402038,174.30689,79.233524)"
       id="g154">
      <g
         id="g153"
         transform="translate(-3.08675,-2.00262)">
        <g
           style="fill:#000000;fill-opacity:1"
           id="g7">
          <g
             id="use6"
             transform="translate(1.993,16.112)">
            <path
               style="stroke:none"
               d="m 18.65625,-11.8125 c 0.46875,-0.8125 0.921875,-1.578125 2.171875,-1.703125 C 21,-13.53125 21.1875,-13.546875 21.1875,-13.875 c 0,-0.234375 -0.1875,-0.234375 -0.234375,-0.234375 -0.04687,0 -0.1875,0.04687 -1.5625,0.04687 -0.609375,0 -1.25,-0.04687 -1.859375,-0.04687 -0.125,0 -0.359375,0 -0.359375,0.390625 0,0.1875 0.15625,0.203125 0.28125,0.203125 0.421875,0.03125 1.078125,0.15625 1.078125,0.796875 0,0.265625 -0.07813,0.40625 -0.296875,0.765625 l -5.640625,9.859375 -0.734375,-10.75 c 0,-0.25 0.21875,-0.640625 1.375,-0.671875 0.28125,0 0.484375,0 0.484375,-0.390625 0,-0.203125 -0.203125,-0.203125 -0.3125,-0.203125 -0.71875,0 -1.484375,0.04687 -2.234375,0.04687 H 10.09375 c -0.296875,0 -0.671875,-0.04687 -0.984375,-0.04687 -0.125,0 -0.375,0 -0.375,0.390625 0,0.203125 0.140625,0.203125 0.5,0.203125 0.953125,0 0.953125,0.03125 1.03125,1.28125 l 0.0625,0.75 L 4.984375,-2.09375 4.21875,-12.75 c 0,-0.21875 0,-0.734375 1.40625,-0.765625 0.21875,0 0.453125,0 0.453125,-0.359375 0,-0.234375 -0.1875,-0.234375 -0.3125,-0.234375 -0.71875,0 -1.484375,0.04687 -2.234375,0.04687 H 2.453125 c -0.3125,0 -0.671875,-0.04687 -0.984375,-0.04687 -0.125,0 -0.375,0 -0.375,0.390625 0,0.203125 0.171875,0.203125 0.453125,0.203125 0.96875,0 1,0.125 1.03125,0.796875 l 0.90625,12.671875 C 3.515625,0.3125 3.53125,0.4375 3.78125,0.4375 c 0.203125,0 0.25,-0.09375 0.4375,-0.390625 L 10.375,-10.71875 11.140625,-0.046875 c 0.01563,0.359375 0.03125,0.484375 0.28125,0.484375 0.203125,0 0.265625,-0.109375 0.4375,-0.390625 z m 0,0"
               id="path149" />
          </g>
        </g>
        <g
           style="fill:#000000;fill-opacity:1"
           id="g8">
          <g
             id="use7"
             transform="translate(23.903,8.6129999)">
            <path
               style="stroke:none"
               d="M 5.578125,-5.859375 C 5.140625,-5.78125 4.90625,-5.46875 4.90625,-5.15625 c 0,0.34375 0.265625,0.46875 0.46875,0.46875 0.40625,0 0.734375,-0.34375 0.734375,-0.78125 0,-0.453125 -0.4375,-0.859375 -1.15625,-0.859375 -0.578125,0 -1.234375,0.265625 -1.84375,1.140625 -0.09375,-0.765625 -0.671875,-1.140625 -1.25,-1.140625 -0.546875,0 -0.84375,0.4375 -1.015625,0.75 -0.234375,0.515625 -0.453125,1.375 -0.453125,1.453125 0,0.046875 0.046875,0.125 0.15625,0.125 0.109375,0 0.125,-0.015625 0.21875,-0.34375 0.203125,-0.859375 0.484375,-1.6875 1.0625,-1.6875 0.34375,0 0.4375,0.234375 0.4375,0.65625 0,0.3125 -0.140625,0.875 -0.25,1.3125 L 1.625,-2.515625 c -0.0625,0.28125 -0.21875,0.921875 -0.296875,1.1875 -0.09375,0.359375 -0.25,1.046875 -0.25,1.109375 0,0.203125 0.15625,0.359375 0.375,0.359375 0.15625,0 0.421875,-0.09375 0.515625,-0.390625 0.046875,-0.109375 0.5625,-2.28125 0.65625,-2.609375 0.078125,-0.3125 0.15625,-0.609375 0.234375,-0.921875 0.046875,-0.203125 0.109375,-0.4375 0.15625,-0.625 C 3.0625,-4.53125 3.4375,-5.234375 3.796875,-5.546875 3.96875,-5.703125 4.34375,-6.03125 4.9375,-6.03125 c 0.21875,0 0.453125,0.03125 0.640625,0.171875 z m 0,0"
               id="path150" />
          </g>
        </g>
        <g
           style="fill:#000000;fill-opacity:1"
           id="g152">
          <g
             id="g151"
             transform="translate(21.093,21.365)">
            <path
               style="stroke:none"
               d="M 6.3125,-2.40625 H 6 c -0.046875,0.234375 -0.15625,1.03125 -0.3125,1.265625 -0.09375,0.125 -0.90625,0.125 -1.34375,0.125 H 1.6875 c 0.390625,-0.328125 1.265625,-1.25 1.640625,-1.59375 2.1875,-2.015625 2.984375,-2.75 2.984375,-4.171875 0,-1.65625 -1.3125,-2.75 -2.96875,-2.75 -1.671875,0 -2.640625,1.40625 -2.640625,2.640625 0,0.734375 0.625,0.734375 0.671875,0.734375 0.296875,0 0.671875,-0.21875 0.671875,-0.671875 C 2.046875,-7.234375 1.78125,-7.5 1.375,-7.5 1.25,-7.5 1.21875,-7.5 1.171875,-7.484375 1.453125,-8.46875 2.21875,-9.125 3.15625,-9.125 4.375,-9.125 5.125,-8.109375 5.125,-6.78125 5.125,-5.5625 4.421875,-4.5 3.59375,-3.578125 L 0.703125,-0.34375 V 0 H 5.9375 Z m 0,0"
               id="path151" />
          </g>
        </g>
      </g>
    </g>
    <g
       inkscape:label=""
       transform="matrix(0.64344152,0,0,0.24402038,48.786332,91.988586)"
       id="g162">
      <g
         id="g161"
         transform="translate(-3.08675,-2.00262)">
        <g
           style="fill:#000000;fill-opacity:1"
           id="g156">
          <g
             id="g155"
             transform="translate(1.993,16.112)">
            <path
               style="stroke:none"
               d="m 18.65625,-11.8125 c 0.46875,-0.8125 0.921875,-1.578125 2.171875,-1.703125 C 21,-13.53125 21.1875,-13.546875 21.1875,-13.875 c 0,-0.234375 -0.1875,-0.234375 -0.234375,-0.234375 -0.04687,0 -0.1875,0.04687 -1.5625,0.04687 -0.609375,0 -1.25,-0.04687 -1.859375,-0.04687 -0.125,0 -0.359375,0 -0.359375,0.390625 0,0.1875 0.15625,0.203125 0.28125,0.203125 0.421875,0.03125 1.078125,0.15625 1.078125,0.796875 0,0.265625 -0.07813,0.40625 -0.296875,0.765625 l -5.640625,9.859375 -0.734375,-10.75 c 0,-0.25 0.21875,-0.640625 1.375,-0.671875 0.28125,0 0.484375,0 0.484375,-0.390625 0,-0.203125 -0.203125,-0.203125 -0.3125,-0.203125 -0.71875,0 -1.484375,0.04687 -2.234375,0.04687 H 10.09375 c -0.296875,0 -0.671875,-0.04687 -0.984375,-0.04687 -0.125,0 -0.375,0 -0.375,0.390625 0,0.203125 0.140625,0.203125 0.5,0.203125 0.953125,0 0.953125,0.03125 1.03125,1.28125 l 0.0625,0.75 L 4.984375,-2.09375 4.21875,-12.75 c 0,-0.21875 0,-0.734375 1.40625,-0.765625 0.21875,0 0.453125,0 0.453125,-0.359375 0,-0.234375 -0.1875,-0.234375 -0.3125,-0.234375 -0.71875,0 -1.484375,0.04687 -2.234375,0.04687 H 2.453125 c -0.3125,0 -0.671875,-0.04687 -0.984375,-0.04687 -0.125,0 -0.375,0 -0.375,0.390625 0,0.203125 0.171875,0.203125 0.453125,0.203125 0.96875,0 1,0.125 1.03125,0.796875 l 0.90625,12.671875 C 3.515625,0.3125 3.53125,0.4375 3.78125,0.4375 c 0.203125,0 0.25,-0.09375 0.4375,-0.390625 L 10.375,-10.71875 11.140625,-0.046875 c 0.01563,0.359375 0.03125,0.484375 0.28125,0.484375 0.203125,0 0.265625,-0.109375 0.4375,-0.390625 z m 0,0"
               id="path154" />
          </g>
        </g>
        <g
           style="fill:#000000;fill-opacity:1"
           id="g158">
          <g
             id="g157"
             transform="translate(23.903,8.6129999)">
            <path
               style="stroke:none"
               d="M 5.578125,-5.859375 C 5.140625,-5.78125 4.90625,-5.46875 4.90625,-5.15625 c 0,0.34375 0.265625,0.46875 0.46875,0.46875 0.40625,0 0.734375,-0.34375 0.734375,-0.78125 0,-0.453125 -0.4375,-0.859375 -1.15625,-0.859375 -0.578125,0 -1.234375,0.265625 -1.84375,1.140625 -0.09375,-0.765625 -0.671875,-1.140625 -1.25,-1.140625 -0.546875,0 -0.84375,0.4375 -1.015625,0.75 -0.234375,0.515625 -0.453125,1.375 -0.453125,1.453125 0,0.046875 0.046875,0.125 0.15625,0.125 0.109375,0 0.125,-0.015625 0.21875,-0.34375 0.203125,-0.859375 0.484375,-1.6875 1.0625,-1.6875 0.34375,0 0.4375,0.234375 0.4375,0.65625 0,0.3125 -0.140625,0.875 -0.25,1.3125 L 1.625,-2.515625 c -0.0625,0.28125 -0.21875,0.921875 -0.296875,1.1875 -0.09375,0.359375 -0.25,1.046875 -0.25,1.109375 0,0.203125 0.15625,0.359375 0.375,0.359375 0.15625,0 0.421875,-0.09375 0.515625,-0.390625 0.046875,-0.109375 0.5625,-2.28125 0.65625,-2.609375 0.078125,-0.3125 0.15625,-0.609375 0.234375,-0.921875 0.046875,-0.203125 0.109375,-0.4375 0.15625,-0.625 C 3.0625,-4.53125 3.4375,-5.234375 3.796875,-5.546875 3.96875,-5.703125 4.34375,-6.03125 4.9375,-6.03125 c 0.21875,0 0.453125,0.03125 0.640625,0.171875 z m 0,0"
               id="path156" />
          </g>
        </g>
        <g
           style="fill:#000000;fill-opacity:1"
           id="g160">
          <g
             id="g159"
             transform="translate(21.093,21.365)">
            <path
               style="stroke:none"
               d="m 4.125,-9.1875 c 0,-0.34375 0,-0.34375 -0.28125,-0.34375 C 3.5,-9.15625 2.78125,-8.625 1.3125,-8.625 v 0.421875 c 0.328125,0 1.046875,0 1.828125,-0.375 v 7.46875 c 0,0.515625 -0.046875,0.6875 -1.296875,0.6875 H 1.390625 V 0 c 0.390625,-0.03125 1.78125,-0.03125 2.25,-0.03125 0.46875,0 1.859375,0 2.234375,0.03125 V -0.421875 H 5.4375 c -1.265625,0 -1.3125,-0.171875 -1.3125,-0.6875 z m 0,0"
               id="path158" />
          </g>
        </g>
      </g>
    </g>
  </g>
</svg>
