<svg xmlns="http://www.w3.org/2000/svg" xmlns:xlink="http://www.w3.org/1999/xlink" version="1.1" width="720.1229pt" height="148.18833pt" viewBox="0 0 720.1229 148.18833">
<defs>
<clipPath id="clip_0">
<path d="M31.688 57.133H37.688V81.875H31.688Z"/>
</clipPath>
<clipPath id="clip_1">
<path d="M0 0H721V149H0Z"/>
</clipPath>
<clipPath id="clip_2">
<path d="M48.688 57.133H54.688V81.875H48.688Z"/>
</clipPath>
<clipPath id="clip_3">
<path d="M0 0H721V149H0Z"/>
</clipPath>
<clipPath id="clip_4">
<path d="M580.934 97.625H588.934V109.691H580.934Z"/>
</clipPath>
<clipPath id="clip_5">
<path d="M0 0H721V149H0Z"/>
</clipPath>
<clipPath id="clip_6">
<path d="M308.387 79.812H316.387V91.878H308.387Z"/>
</clipPath>
<clipPath id="clip_7">
<path d="M0 0H721V149H0Z"/>
</clipPath>
<clipPath id="clip_8">
<path d="M310.316 110.086H316.316V134.828H310.316Z"/>
</clipPath>
<clipPath id="clip_9">
<path d="M0 0H721V149H0Z"/>
</clipPath>
<clipPath id="clip_10">
<path d="M327.316 110.086H333.316V134.828H327.316Z"/>
</clipPath>
<clipPath id="clip_11">
<path d="M0 0H721V149H0Z"/>
</clipPath>
<clipPath id="clip_12">
<path d="M557.68 44.484H563.68V69.226H557.68Z"/>
</clipPath>
<clipPath id="clip_13">
<path d="M0 0H721V149H0Z"/>
</clipPath>
<clipPath id="clip_14">
<path d="M574.68 44.484H580.68V69.226H574.68Z"/>
</clipPath>
<clipPath id="clip_15">
<path d="M0 0H721V149H0Z"/>
</clipPath>
<clipPath id="clip_16">
<path d="M98.484 .219H126.484V17.153H98.484Z"/>
</clipPath>
<clipPath id="clip_17">
<path d="M0 0H721V149H0Z"/>
</clipPath>
<clipPath id="clip_18">
<path d="M136.484 .219H144.484V17.153H136.484Z"/>
</clipPath>
<clipPath id="clip_19">
<path d="M0 0H721V149H0Z"/>
</clipPath>
<clipPath id="clip_20">
<path d="M360.031 0H388.031V16.934H360.031Z"/>
</clipPath>
<clipPath id="clip_21">
<path d="M0 0H721V149H0Z"/>
</clipPath>
<clipPath id="clip_22">
<path d="M397.031 0H407.031V16.934H397.031Z"/>
</clipPath>
<clipPath id="clip_23">
<path d="M0 0H721V149H0Z"/>
</clipPath>
<clipPath id="clip_24">
<path d="M626.84 .438H654.84V17.372H626.84Z"/>
</clipPath>
<clipPath id="clip_25">
<path d="M0 0H721V149H0Z"/>
</clipPath>
<clipPath id="clip_26">
<path d="M663.84 .438H673.84V17.372H663.84Z"/>
</clipPath>
<clipPath id="clip_27">
<path d="M0 0H721V149H0Z"/>
</clipPath>
<clipPath id="clip_28">
<path d="M55.102 115.164H61.102V127.23H55.102Z"/>
</clipPath>
<clipPath id="clip_29">
<path d="M0 0H721V149H0Z"/>
</clipPath>
</defs>
<g>
<path stroke-width="1.177047" stroke-linecap="round" stroke-linejoin="round" fill="none" stroke="#000000" d="M451.57 47.668 426.957 146.418H346.012L319.852 47.062"/>
<path stroke-width="1.549151" stroke-linecap="butt" stroke-dasharray="6.19662,6.19662" stroke-miterlimit="4" stroke-linejoin="miter" fill="none" stroke="#000000" d="M328.918 79.461H442.465"/>
<path stroke-width=".749999" stroke-linecap="butt" stroke-miterlimit="4" stroke-linejoin="miter" fill="none" stroke="#000000" d="M346.168 146.125 345.172 145.781"/>
<path d="M339.699 120.121 432.828 119.824 425.598 147.305 347.004 146.805ZM339.699 120.121" fill="#1d53b3"/>
<path stroke-width=".749999" stroke-linecap="butt" stroke-miterlimit="4" stroke-linejoin="miter" fill="none" stroke="#000000" d="M339.699 120.121 432.828 119.824 425.598 147.305 347.004 146.805ZM339.699 120.121"/>
<path stroke-width="1.177047" stroke-linecap="round" stroke-linejoin="round" fill="none" stroke="#000000" d="M188.992 47.641 164.383 146.391H83.438L57.277 47.035"/>
<path stroke-width=".749999" stroke-linecap="butt" stroke-miterlimit="4" stroke-linejoin="miter" fill="none" stroke="#000000" d="M83.594 146.094 82.598 145.754"/>
<path d="M66.121 79.461 180.32 78.758 162.988 147.273 84.293 146.762ZM66.121 79.461" fill="#a01725"/>
<path stroke-width=".760343" stroke-linecap="butt" stroke-miterlimit="4" stroke-linejoin="miter" fill="none" stroke="#000000" d="M66.121 79.461 180.32 78.758 162.988 147.273 84.293 146.762ZM66.121 79.461"/>
<path stroke-width="1.611865" stroke-linecap="butt" stroke-dasharray="6.447458,6.447458" stroke-miterlimit="4" stroke-linejoin="miter" fill="none" stroke="#000000" d="M75.812 112.633H172.297"/>
<path d="M704.863 116.84C704.863 116.883 704.832 116.914 704.793 116.914 704.754 116.914 704.723 116.883 704.723 116.84 704.723 116.801 704.754 116.77 704.793 116.77 704.832 116.77 704.863 116.801 704.863 116.84ZM704.863 116.84"/>
<path stroke-width=".749999" stroke-linecap="butt" stroke-miterlimit="4" stroke-linejoin="miter" fill="none" stroke="#000000" d="M704.863 116.84C704.863 116.883 704.832 116.914 704.793 116.914 704.754 116.914 704.723 116.883 704.723 116.84 704.723 116.801 704.754 116.77 704.793 116.77 704.832 116.77 704.863 116.801 704.863 116.84ZM704.863 116.84"/>
<path d="M689.91 109.848C689.91 109.887 689.879 109.918 689.84 109.918 689.797 109.918 689.766 109.887 689.766 109.848 689.766 109.809 689.797 109.777 689.84 109.777 689.879 109.777 689.91 109.809 689.91 109.848ZM689.91 109.848"/>
<path stroke-width=".749999" stroke-linecap="butt" stroke-miterlimit="4" stroke-linejoin="miter" fill="none" stroke="#000000" d="M689.91 109.848C689.91 109.887 689.879 109.918 689.84 109.918 689.797 109.918 689.766 109.887 689.766 109.848 689.766 109.809 689.797 109.777 689.84 109.777 689.879 109.777 689.91 109.809 689.91 109.848ZM689.91 109.848"/>
<path d="M701.535 116.227C701.535 116.266 701.504 116.297 701.465 116.297 701.422 116.297 701.391 116.266 701.391 116.227 701.391 116.188 701.422 116.156 701.465 116.156 701.504 116.156 701.535 116.188 701.535 116.227ZM701.535 116.227"/>
<path stroke-width=".749999" stroke-linecap="butt" stroke-miterlimit="4" stroke-linejoin="miter" fill="none" stroke="#000000" d="M701.535 116.227C701.535 116.266 701.504 116.297 701.465 116.297 701.422 116.297 701.391 116.266 701.391 116.227 701.391 116.188 701.422 116.156 701.465 116.156 701.504 116.156 701.535 116.188 701.535 116.227ZM701.535 116.227"/>
<path stroke-width="1.177047" stroke-linecap="round" stroke-linejoin="round" fill="none" stroke="#000000" d="M719.535 48.176 694.922 146.926H613.98L587.82 47.57"/>
<path stroke-width=".749999" stroke-linecap="butt" stroke-miterlimit="4" stroke-linejoin="miter" fill="none" stroke="#000000" d="M60.602 128.84 59.602 128.5"/>
<path d="M593.051 62.555 715.367 62.629 693.562 147.812 614.969 147.312ZM593.051 62.555" fill="#81baff"/>
<path stroke-width=".749999" stroke-linecap="butt" stroke-miterlimit="4" stroke-linejoin="miter" fill="none" stroke="#000000" d="M593.051 62.555 715.367 62.629 693.562 147.812 614.969 147.312ZM593.051 62.555"/>
<path stroke-width="1.505183" stroke-linecap="butt" stroke-dasharray="6.020731,6.020731" stroke-miterlimit="4" stroke-linejoin="miter" fill="none" stroke="#000000" d="M599.93 97.836H707.121"/>
<path d="M21.062 61.527C21.641 60.559 22.188 59.637 23.672 59.496 23.891 59.465 24.109 59.449 24.109 59.043 24.109 58.777 23.891 58.777 23.812 58.777 23.766 58.777 23.594 58.824 21.953 58.824 21.219 58.824 20.453 58.777 19.734 58.777 19.578 58.777 19.281 58.777 19.281 59.246 19.281 59.465 19.484 59.496 19.625 59.496 20.125 59.512 20.922 59.668 20.922 60.434 20.922 60.762 20.812 60.934 20.562 61.355L13.797 73.199 12.906 60.293C12.906 59.98 13.188 59.512 14.578 59.496 14.891 59.496 15.141 59.496 15.141 59.027 15.141 58.777 14.891 58.777 14.766 58.777 13.906 58.777 12.984 58.824 12.094 58.824H10.812C10.438 58.824 9.984 58.777 9.609 58.777 9.469 58.777 9.172 58.777 9.172 59.246 9.172 59.496 9.344 59.496 9.766 59.496 10.906 59.496 10.906 59.512 11 61.027L11.078 61.918 4.656 73.199 3.75 60.402C3.75 60.137 3.75 59.512 5.422 59.496 5.703 59.496 5.969 59.496 5.969 59.043 5.969 58.777 5.75 58.777 5.594 58.777 4.734 58.777 3.812 58.824 2.922 58.824H1.641C1.266 58.824 .812 58.777 .453 58.777 .297 58.777 0 58.777 0 59.246 0 59.496 .203 59.496 .547 59.496 1.703 59.496 1.734 59.637 1.781 60.434L2.875 75.652C2.906 76.074 2.922 76.215 3.219 76.215 3.469 76.215 3.516 76.121 3.75 75.746L11.125 62.84 12.047 75.652C12.062 76.074 12.094 76.215 12.391 76.215 12.641 76.215 12.719 76.09 12.906 75.746ZM21.062 61.527"/>
<path d="M26.18 68.418C26.18 68.059 26.164 68.043 25.93 68.043 25.258 68.84 24.242 69.105 23.273 69.137 23.227 69.137 23.133 69.137 23.117 69.168 23.102 69.215 23.102 69.246 23.102 69.605 23.633 69.605 24.523 69.496 25.211 69.09V78.168C25.211 78.762 25.18 78.965 23.695 78.965H23.18V79.418C24.008 79.402 24.867 79.387 25.695 79.387 26.523 79.387 27.383 79.402 28.211 79.418V78.965H27.695C26.211 78.965 26.18 78.777 26.18 78.168ZM26.18 68.418"/>
<g clip-path="url(#clip_0)">
<g clip-path="url(#clip_1)">
<path d="M37.574 81.746C37.574 81.715 37.574 81.668 37.512 81.59 36.371 80.434 33.324 77.262 33.324 69.527 33.324 61.793 36.309 58.652 37.527 57.418 37.527 57.387 37.574 57.34 37.574 57.262 37.574 57.184 37.512 57.137 37.402 57.137 37.137 57.137 35.027 58.965 33.809 61.699 32.574 64.449 32.23 67.121 32.23 69.512 32.23 71.293 32.402 74.309 33.887 77.512 35.074 80.09 37.105 81.887 37.402 81.887 37.527 81.887 37.574 81.84 37.574 81.746ZM37.574 81.746"/>
</g>
</g>
<path d="M43.758 65.73H46.039C46.508 65.73 46.758 65.73 46.758 65.293 46.758 65.012 46.602 65.012 46.102 65.012H43.93L44.852 61.402C44.945 61.059 44.945 61.012 44.945 60.824 44.945 60.434 44.617 60.215 44.305 60.215 44.102 60.215 43.539 60.293 43.336 61.074L42.367 65.012H40.039C39.539 65.012 39.32 65.012 39.32 65.496 39.32 65.73 39.492 65.73 39.961 65.73H42.164L40.539 72.277C40.336 73.152 40.258 73.402 40.258 73.715 40.258 74.887 41.07 75.949 42.461 75.949 44.961 75.949 46.305 72.324 46.305 72.152 46.305 72.012 46.211 71.934 46.055 71.934 46.008 71.934 45.914 71.934 45.867 72.027 45.836 72.059 45.805 72.074 45.633 72.48 45.117 73.715 43.977 75.449 42.539 75.449 41.789 75.449 41.742 74.824 41.742 74.293 41.742 74.262 41.742 73.793 41.82 73.496ZM43.758 65.73"/>
<g clip-path="url(#clip_2)">
<g clip-path="url(#clip_3)">
<path d="M54.051 69.527C54.051 67.746 53.879 64.715 52.395 61.527 51.207 58.949 49.176 57.137 48.879 57.137 48.801 57.137 48.707 57.168 48.707 57.293 48.707 57.34 48.723 57.355 48.754 57.418 49.941 58.652 52.957 61.793 52.957 69.512 52.957 77.23 49.957 80.387 48.754 81.621 48.723 81.668 48.707 81.699 48.707 81.746 48.707 81.871 48.801 81.887 48.879 81.887 49.145 81.887 51.254 80.059 52.473 77.34 53.707 74.59 54.051 71.902 54.051 69.527ZM54.051 69.527"/>
</g>
</g>
<path d="M580.309 89.391C580.887 88.422 581.434 87.5 582.918 87.359 583.137 87.328 583.355 87.312 583.355 86.906 583.355 86.641 583.137 86.641 583.059 86.641 583.012 86.641 582.84 86.688 581.199 86.688 580.465 86.688 579.699 86.641 578.98 86.641 578.824 86.641 578.527 86.641 578.527 87.109 578.527 87.328 578.73 87.359 578.871 87.359 579.371 87.375 580.168 87.531 580.168 88.297 580.168 88.625 580.059 88.797 579.809 89.219L573.043 101.062 572.152 88.156C572.152 87.844 572.434 87.375 573.824 87.359 574.137 87.359 574.387 87.359 574.387 86.891 574.387 86.641 574.137 86.641 574.012 86.641 573.152 86.641 572.23 86.688 571.34 86.688H570.059C569.684 86.688 569.23 86.641 568.855 86.641 568.715 86.641 568.418 86.641 568.418 87.109 568.418 87.359 568.59 87.359 569.012 87.359 570.152 87.359 570.152 87.375 570.246 88.891L570.324 89.781 563.902 101.062 562.996 88.266C562.996 88 562.996 87.375 564.668 87.359 564.949 87.359 565.215 87.359 565.215 86.906 565.215 86.641 564.996 86.641 564.84 86.641 563.98 86.641 563.059 86.688 562.168 86.688H560.887C560.512 86.688 560.059 86.641 559.699 86.641 559.543 86.641 559.246 86.641 559.246 87.109 559.246 87.359 559.449 87.359 559.793 87.359 560.949 87.359 560.98 87.5 561.027 88.297L562.121 103.516C562.152 103.938 562.168 104.078 562.465 104.078 562.715 104.078 562.762 103.984 562.996 103.609L570.371 90.703 571.293 103.516C571.309 103.938 571.34 104.078 571.637 104.078 571.887 104.078 571.965 103.953 572.152 103.609ZM580.309 89.391"/>
<path d="M590.918 87.52C590.387 87.629 590.105 88.004 590.105 88.379 590.105 88.801 590.434 88.941 590.668 88.941 591.152 88.941 591.543 88.52 591.543 88.004 591.543 87.457 591.012 86.973 590.152 86.973 589.465 86.973 588.668 87.285 587.949 88.332 587.824 87.426 587.137 86.973 586.449 86.973 585.777 86.973 585.434 87.488 585.23 87.863 584.934 88.488 584.684 89.52 584.684 89.613 584.684 89.676 584.746 89.77 584.871 89.77 585.012 89.77 585.027 89.738 585.121 89.348 585.387 88.316 585.715 87.316 586.402 87.316 586.809 87.316 586.934 87.613 586.934 88.113 586.934 88.488 586.762 89.16 586.637 89.691L586.168 91.551C586.09 91.879 585.902 92.66 585.809 92.973 585.699 93.41 585.512 94.223 585.512 94.301 585.512 94.551 585.699 94.738 585.949 94.738 586.137 94.738 586.465 94.613 586.574 94.27 586.621 94.129 587.262 91.535 587.371 91.145 587.449 90.754 587.559 90.395 587.637 90.02 587.715 89.785 587.777 89.504 587.824 89.285 587.887 89.129 588.34 88.285 588.777 87.91 588.98 87.707 589.434 87.316 590.137 87.316 590.418 87.316 590.684 87.363 590.918 87.52ZM590.918 87.52"/>
<g clip-path="url(#clip_4)">
<g clip-path="url(#clip_5)">
<path d="M584.656 103.832C586.188 103.832 586.859 105.16 586.859 106.691 586.859 108.754 585.75 109.551 584.75 109.551 583.844 109.551 582.359 109.113 581.891 107.785 581.984 107.816 582.062 107.816 582.156 107.816 582.562 107.816 582.875 107.535 582.875 107.098 582.875 106.598 582.5 106.363 582.156 106.363 581.859 106.363 581.406 106.504 581.406 107.145 581.406 108.723 582.969 109.973 584.781 109.973 586.703 109.973 588.156 108.473 588.156 106.707 588.156 105.035 586.781 103.832 585.156 103.645 586.453 103.379 587.719 102.207 587.719 100.629 587.719 99.285 586.359 98.316 584.797 98.316 583.234 98.316 581.859 99.27 581.859 100.645 581.859 101.254 582.312 101.363 582.531 101.363 582.891 101.363 583.203 101.129 583.203 100.691 583.203 100.238 582.891 100.02 582.531 100.02 582.469 100.02 582.375 100.02 582.312 100.051 582.812 98.91 584.172 98.707 584.766 98.707 585.375 98.707 586.516 99.004 586.516 100.645 586.516 101.129 586.438 101.988 585.859 102.754 585.344 103.426 584.75 103.457 584.188 103.504 584.094 103.504 583.703 103.551 583.641 103.551 583.516 103.566 583.438 103.582 583.438 103.707 583.438 103.816 583.469 103.832 583.812 103.832ZM584.656 103.832"/>
</g>
</g>
<path d="M307.762 71.578C308.34 70.609 308.887 69.688 310.371 69.547 310.59 69.516 310.809 69.5 310.809 69.094 310.809 68.828 310.59 68.828 310.512 68.828 310.465 68.828 310.293 68.875 308.652 68.875 307.918 68.875 307.152 68.828 306.434 68.828 306.277 68.828 305.98 68.828 305.98 69.297 305.98 69.516 306.184 69.547 306.324 69.547 306.824 69.562 307.621 69.719 307.621 70.484 307.621 70.812 307.512 70.984 307.262 71.406L300.496 83.25 299.605 70.344C299.605 70.031 299.887 69.562 301.277 69.547 301.59 69.547 301.84 69.547 301.84 69.078 301.84 68.828 301.59 68.828 301.465 68.828 300.605 68.828 299.684 68.875 298.793 68.875H297.512C297.137 68.875 296.684 68.828 296.309 68.828 296.168 68.828 295.871 68.828 295.871 69.297 295.871 69.547 296.043 69.547 296.465 69.547 297.605 69.547 297.605 69.562 297.699 71.078L297.777 71.969 291.355 83.25 290.449 70.453C290.449 70.188 290.449 69.562 292.121 69.547 292.402 69.547 292.668 69.547 292.668 69.094 292.668 68.828 292.449 68.828 292.293 68.828 291.434 68.828 290.512 68.875 289.621 68.875H288.34C287.965 68.875 287.512 68.828 287.152 68.828 286.996 68.828 286.699 68.828 286.699 69.297 286.699 69.547 286.902 69.547 287.246 69.547 288.402 69.547 288.434 69.688 288.48 70.484L289.574 85.703C289.605 86.125 289.621 86.266 289.918 86.266 290.168 86.266 290.215 86.172 290.449 85.797L297.824 72.891 298.746 85.703C298.762 86.125 298.793 86.266 299.09 86.266 299.34 86.266 299.418 86.141 299.605 85.797ZM307.762 71.578"/>
<path d="M318.371 69.707C317.84 69.816 317.559 70.191 317.559 70.566 317.559 70.988 317.887 71.129 318.121 71.129 318.605 71.129 318.996 70.707 318.996 70.191 318.996 69.645 318.465 69.16 317.605 69.16 316.918 69.16 316.121 69.473 315.402 70.52 315.277 69.613 314.59 69.16 313.902 69.16 313.23 69.16 312.887 69.676 312.684 70.051 312.387 70.676 312.137 71.707 312.137 71.801 312.137 71.863 312.199 71.957 312.324 71.957 312.465 71.957 312.48 71.926 312.574 71.535 312.84 70.504 313.168 69.504 313.855 69.504 314.262 69.504 314.387 69.801 314.387 70.301 314.387 70.676 314.215 71.348 314.09 71.879L313.621 73.738C313.543 74.066 313.355 74.848 313.262 75.16 313.152 75.598 312.965 76.41 312.965 76.488 312.965 76.738 313.152 76.926 313.402 76.926 313.59 76.926 313.918 76.801 314.027 76.457 314.074 76.316 314.715 73.723 314.824 73.332 314.902 72.941 315.012 72.582 315.09 72.207 315.168 71.973 315.23 71.691 315.277 71.473 315.34 71.316 315.793 70.473 316.23 70.098 316.434 69.895 316.887 69.504 317.59 69.504 317.871 69.504 318.137 69.551 318.371 69.707ZM318.371 69.707"/>
<g clip-path="url(#clip_6)">
<g clip-path="url(#clip_7)">
<path d="M315.484 89.207H315.172C315 90.426 314.859 90.645 314.781 90.738 314.703 90.879 313.469 90.879 313.219 90.879H309.922C310.531 90.207 311.734 88.988 313.203 87.566 314.25 86.582 315.484 85.41 315.484 83.707 315.484 81.676 313.859 80.504 312.047 80.504 310.156 80.504 309 82.16 309 83.723 309 84.395 309.5 84.473 309.703 84.473 309.875 84.473 310.391 84.379 310.391 83.77 310.391 83.238 309.953 83.082 309.703 83.082 309.609 83.082 309.5 83.098 309.438 83.129 309.766 81.676 310.766 80.941 311.812 80.941 313.312 80.941 314.281 82.129 314.281 83.707 314.281 85.191 313.406 86.488 312.422 87.613L309 91.488V91.879H315.062ZM315.484 89.207"/>
</g>
</g>
<path d="M299.691 114.48C300.27 113.512 300.816 112.59 302.301 112.449 302.52 112.418 302.738 112.402 302.738 111.996 302.738 111.73 302.52 111.73 302.441 111.73 302.395 111.73 302.223 111.777 300.582 111.777 299.848 111.777 299.082 111.73 298.363 111.73 298.207 111.73 297.91 111.73 297.91 112.199 297.91 112.418 298.113 112.449 298.254 112.449 298.754 112.465 299.551 112.621 299.551 113.387 299.551 113.715 299.441 113.887 299.191 114.309L292.426 126.152 291.535 113.246C291.535 112.934 291.816 112.465 293.207 112.449 293.52 112.449 293.77 112.449 293.77 111.98 293.77 111.73 293.52 111.73 293.395 111.73 292.535 111.73 291.613 111.777 290.723 111.777H289.441C289.066 111.777 288.613 111.73 288.238 111.73 288.098 111.73 287.801 111.73 287.801 112.199 287.801 112.449 287.973 112.449 288.395 112.449 289.535 112.449 289.535 112.465 289.629 113.98L289.707 114.871 283.285 126.152 282.379 113.355C282.379 113.09 282.379 112.465 284.051 112.449 284.332 112.449 284.598 112.449 284.598 111.996 284.598 111.73 284.379 111.73 284.223 111.73 283.363 111.73 282.441 111.777 281.551 111.777H280.27C279.895 111.777 279.441 111.73 279.082 111.73 278.926 111.73 278.629 111.73 278.629 112.199 278.629 112.449 278.832 112.449 279.176 112.449 280.332 112.449 280.363 112.59 280.41 113.387L281.504 128.605C281.535 129.027 281.551 129.168 281.848 129.168 282.098 129.168 282.145 129.074 282.379 128.699L289.754 115.793 290.676 128.605C290.691 129.027 290.723 129.168 291.02 129.168 291.27 129.168 291.348 129.043 291.535 128.699ZM299.691 114.48"/>
<path d="M307.418 129.699H307.105C306.934 130.918 306.793 131.137 306.715 131.23 306.637 131.371 305.402 131.371 305.152 131.371H301.855C302.465 130.699 303.668 129.48 305.137 128.059 306.184 127.074 307.418 125.902 307.418 124.199 307.418 122.168 305.793 120.996 303.98 120.996 302.09 120.996 300.934 122.652 300.934 124.215 300.934 124.887 301.434 124.965 301.637 124.965 301.809 124.965 302.324 124.871 302.324 124.262 302.324 123.73 301.887 123.574 301.637 123.574 301.543 123.574 301.434 123.59 301.371 123.621 301.699 122.168 302.699 121.434 303.746 121.434 305.246 121.434 306.215 122.621 306.215 124.199 306.215 125.684 305.34 126.98 304.355 128.105L300.934 131.98V132.371H306.996ZM307.418 129.699"/>
<g clip-path="url(#clip_8)">
<g clip-path="url(#clip_9)">
<path d="M316.203 134.699C316.203 134.668 316.203 134.621 316.141 134.543 315 133.387 311.953 130.215 311.953 122.48 311.953 114.746 314.938 111.605 316.156 110.371 316.156 110.34 316.203 110.293 316.203 110.215 316.203 110.137 316.141 110.09 316.031 110.09 315.766 110.09 313.656 111.918 312.438 114.652 311.203 117.402 310.859 120.074 310.859 122.465 310.859 124.246 311.031 127.262 312.516 130.465 313.703 133.043 315.734 134.84 316.031 134.84 316.156 134.84 316.203 134.793 316.203 134.699ZM316.203 134.699"/>
</g>
</g>
<path d="M322.387 118.684H324.668C325.137 118.684 325.387 118.684 325.387 118.246 325.387 117.965 325.23 117.965 324.73 117.965H322.559L323.48 114.355C323.574 114.012 323.574 113.965 323.574 113.777 323.574 113.387 323.246 113.168 322.934 113.168 322.73 113.168 322.168 113.246 321.965 114.027L320.996 117.965H318.668C318.168 117.965 317.949 117.965 317.949 118.449 317.949 118.684 318.121 118.684 318.59 118.684H320.793L319.168 125.23C318.965 126.105 318.887 126.355 318.887 126.668 318.887 127.84 319.699 128.902 321.09 128.902 323.59 128.902 324.934 125.277 324.934 125.105 324.934 124.965 324.84 124.887 324.684 124.887 324.637 124.887 324.543 124.887 324.496 124.98 324.465 125.012 324.434 125.027 324.262 125.434 323.746 126.668 322.605 128.402 321.168 128.402 320.418 128.402 320.371 127.777 320.371 127.246 320.371 127.215 320.371 126.746 320.449 126.449ZM322.387 118.684"/>
<g clip-path="url(#clip_10)">
<g clip-path="url(#clip_11)">
<path d="M332.68 122.48C332.68 120.699 332.508 117.668 331.023 114.48 329.836 111.902 327.805 110.09 327.508 110.09 327.43 110.09 327.336 110.121 327.336 110.246 327.336 110.293 327.352 110.309 327.383 110.371 328.57 111.605 331.586 114.746 331.586 122.465 331.586 130.184 328.586 133.34 327.383 134.574 327.352 134.621 327.336 134.652 327.336 134.699 327.336 134.824 327.43 134.84 327.508 134.84 327.773 134.84 329.883 133.012 331.102 130.293 332.336 127.543 332.68 124.855 332.68 122.48ZM332.68 122.48"/>
</g>
</g>
<path d="M547.055 48.883C547.633 47.914 548.18 46.992 549.664 46.852 549.883 46.82 550.102 46.805 550.102 46.398 550.102 46.133 549.883 46.133 549.805 46.133 549.758 46.133 549.586 46.18 547.945 46.18 547.211 46.18 546.445 46.133 545.727 46.133 545.57 46.133 545.273 46.133 545.273 46.602 545.273 46.82 545.477 46.852 545.617 46.852 546.117 46.867 546.914 47.023 546.914 47.789 546.914 48.117 546.805 48.289 546.555 48.711L539.789 60.555 538.898 47.648C538.898 47.336 539.18 46.867 540.57 46.852 540.883 46.852 541.133 46.852 541.133 46.383 541.133 46.133 540.883 46.133 540.758 46.133 539.898 46.133 538.977 46.18 538.086 46.18H536.805C536.43 46.18 535.977 46.133 535.602 46.133 535.461 46.133 535.164 46.133 535.164 46.602 535.164 46.852 535.336 46.852 535.758 46.852 536.898 46.852 536.898 46.867 536.992 48.383L537.07 49.273 530.648 60.555 529.742 47.758C529.742 47.492 529.742 46.867 531.414 46.852 531.695 46.852 531.961 46.852 531.961 46.398 531.961 46.133 531.742 46.133 531.586 46.133 530.727 46.133 529.805 46.18 528.914 46.18H527.633C527.258 46.18 526.805 46.133 526.445 46.133 526.289 46.133 525.992 46.133 525.992 46.602 525.992 46.852 526.195 46.852 526.539 46.852 527.695 46.852 527.727 46.992 527.773 47.789L528.867 63.008C528.898 63.43 528.914 63.57 529.211 63.57 529.461 63.57 529.508 63.477 529.742 63.102L537.117 50.195 538.039 63.008C538.055 63.43 538.086 63.57 538.383 63.57 538.633 63.57 538.711 63.445 538.898 63.102ZM547.055 48.883"/>
<path d="M551.406 60.91C552.938 60.91 553.609 62.238 553.609 63.77 553.609 65.832 552.5 66.629 551.5 66.629 550.594 66.629 549.109 66.191 548.641 64.863 548.734 64.895 548.812 64.895 548.906 64.895 549.312 64.895 549.625 64.613 549.625 64.176 549.625 63.676 549.25 63.441 548.906 63.441 548.609 63.441 548.156 63.582 548.156 64.223 548.156 65.801 549.719 67.051 551.531 67.051 553.453 67.051 554.906 65.551 554.906 63.785 554.906 62.113 553.531 60.91 551.906 60.723 553.203 60.457 554.469 59.285 554.469 57.707 554.469 56.363 553.109 55.395 551.547 55.395 549.984 55.395 548.609 56.348 548.609 57.723 548.609 58.332 549.062 58.441 549.281 58.441 549.641 58.441 549.953 58.207 549.953 57.77 549.953 57.316 549.641 57.098 549.281 57.098 549.219 57.098 549.125 57.098 549.062 57.129 549.562 55.988 550.922 55.785 551.516 55.785 552.125 55.785 553.266 56.082 553.266 57.723 553.266 58.207 553.188 59.066 552.609 59.832 552.094 60.504 551.5 60.535 550.938 60.582 550.844 60.582 550.453 60.629 550.391 60.629 550.266 60.645 550.188 60.66 550.188 60.785 550.188 60.895 550.219 60.91 550.562 60.91ZM551.406 60.91"/>
<g clip-path="url(#clip_12)">
<g clip-path="url(#clip_13)">
<path d="M563.566 69.102C563.566 69.07 563.566 69.023 563.504 68.945 562.363 67.789 559.316 64.617 559.316 56.883 559.316 49.148 562.301 46.008 563.52 44.773 563.52 44.742 563.566 44.695 563.566 44.617 563.566 44.539 563.504 44.492 563.395 44.492 563.129 44.492 561.02 46.32 559.801 49.055 558.566 51.805 558.223 54.477 558.223 56.867 558.223 58.648 558.395 61.664 559.879 64.867 561.066 67.445 563.098 69.242 563.395 69.242 563.52 69.242 563.566 69.195 563.566 69.102ZM563.566 69.102"/>
</g>
</g>
<path d="M569.75 53.086H572.031C572.5 53.086 572.75 53.086 572.75 52.648 572.75 52.367 572.594 52.367 572.094 52.367H569.922L570.844 48.758C570.938 48.414 570.938 48.367 570.938 48.18 570.938 47.789 570.609 47.57 570.297 47.57 570.094 47.57 569.531 47.648 569.328 48.43L568.359 52.367H566.031C565.531 52.367 565.312 52.367 565.312 52.852 565.312 53.086 565.484 53.086 565.953 53.086H568.156L566.531 59.633C566.328 60.508 566.25 60.758 566.25 61.07 566.25 62.242 567.062 63.305 568.453 63.305 570.953 63.305 572.297 59.68 572.297 59.508 572.297 59.367 572.203 59.289 572.047 59.289 572 59.289 571.906 59.289 571.859 59.383 571.828 59.414 571.797 59.43 571.625 59.836 571.109 61.07 569.969 62.805 568.531 62.805 567.781 62.805 567.734 62.18 567.734 61.648 567.734 61.617 567.734 61.148 567.812 60.852ZM569.75 53.086"/>
<g clip-path="url(#clip_14)">
<g clip-path="url(#clip_15)">
<path d="M580.043 56.883C580.043 55.102 579.871 52.07 578.387 48.883 577.199 46.305 575.168 44.492 574.871 44.492 574.793 44.492 574.699 44.523 574.699 44.648 574.699 44.695 574.715 44.711 574.746 44.773 575.934 46.008 578.949 49.148 578.949 56.867 578.949 64.586 575.949 67.742 574.746 68.977 574.715 69.023 574.699 69.055 574.699 69.102 574.699 69.227 574.793 69.242 574.871 69.242 575.137 69.242 577.246 67.414 578.465 64.695 579.699 61.945 580.043 59.258 580.043 56.883ZM580.043 56.883"/>
</g>
</g>
<g clip-path="url(#clip_16)">
<g clip-path="url(#clip_17)">
<path d="M102.562 .527C102.391 .246 102.359 .23 101.891 .23H98.75V.871H99.219C100.203 .871 100.656 .996 100.734 1.027V14.73C100.734 15.34 100.734 16.512 98.75 16.512V17.152C99.312 17.105 100.359 17.105 100.984 17.105 101.594 17.105 102.641 17.105 103.203 17.152V16.512C101.219 16.512 101.219 15.34 101.219 14.73V1.371C101.406 1.512 101.406 1.559 101.578 1.809L110.766 16.855C110.938 17.152 111.016 17.152 111.141 17.152 111.391 17.152 111.391 17.074 111.391 16.605V2.652C111.391 2.043 111.391 .871 113.375 .871V.23C112.797 .277 111.766 .277 111.141 .277 110.516 .277 109.484 .277 108.906 .23V.871C110.891 .871 110.891 2.043 110.891 2.652V14.137ZM102.562 .527"/>
<path d="M125.527 .324C125.527-.113 125.496-.145 125.355-.145 125.199-.145 125.152-.051 125.059 .184L124.309 1.809C123.371 .449 121.934-.176 120.371-.176 117.84-.176 115.809 1.84 115.809 4.371 115.809 5.137 115.98 6.23 116.824 7.262 117.746 8.402 118.605 8.605 120.59 9.121 121.34 9.324 122.574 9.637 122.824 9.746 124.23 10.34 124.98 11.824 124.98 13.215 124.98 14.996 123.715 16.902 121.559 16.902 118.902 16.902 116.434 15.418 116.262 11.949 116.23 11.559 116.199 11.527 116.027 11.527 115.84 11.527 115.809 11.559 115.809 12.043V17.059C115.809 17.496 115.84 17.527 115.98 17.527 116.152 17.527 116.199 17.402 116.559 16.637 116.574 16.559 116.574 16.512 117.043 15.559 118.293 17.199 120.371 17.543 121.559 17.543 124.262 17.543 126.168 15.293 126.168 12.668 126.168 11.371 125.699 10.387 125.418 9.934 124.387 8.355 123.262 8.059 122.074 7.762 121.902 7.684 121.855 7.684 120.465 7.34 119.121 6.996 118.559 6.824 117.934 6.152 117.246 5.387 116.996 4.59 116.996 3.793 116.996 2.184 118.293 .418 120.387 .418 123.012 .418 124.652 2.277 125.027 5.387 125.105 5.824 125.121 5.855 125.293 5.855 125.527 5.855 125.527 5.777 125.527 5.355ZM125.527 .324"/>
</g>
</g>
<g clip-path="url(#clip_18)">
<g clip-path="url(#clip_19)">
<path d="M141.41 1.324C141.41 .793 141.379 .777 141.035 .777 140.066 1.934 138.613 2.309 137.223 2.355 137.145 2.355 137.02 2.355 137.004 2.402 136.973 2.465 136.973 2.512 136.973 3.027 137.738 3.027 139.035 2.871 140.02 2.277V15.34C140.02 16.215 139.973 16.512 137.832 16.512H137.098V17.152C138.285 17.121 139.52 17.105 140.707 17.105 141.91 17.105 143.145 17.121 144.332 17.152V16.512H143.582C141.457 16.512 141.41 16.23 141.41 15.34ZM141.41 1.324"/>
</g>
</g>
<g clip-path="url(#clip_20)">
<g clip-path="url(#clip_21)">
<path d="M364.109 .309C363.938 .027 363.906 .012 363.438 .012H360.297V.652H360.766C361.75 .652 362.203 .777 362.281 .809V14.512C362.281 15.121 362.281 16.293 360.297 16.293V16.934C360.859 16.887 361.906 16.887 362.531 16.887 363.141 16.887 364.188 16.887 364.75 16.934V16.293C362.766 16.293 362.766 15.121 362.766 14.512V1.152C362.953 1.293 362.953 1.34 363.125 1.59L372.312 16.637C372.484 16.934 372.562 16.934 372.688 16.934 372.938 16.934 372.938 16.855 372.938 16.387V2.434C372.938 1.824 372.938 .652 374.922 .652V.012C374.344 .059 373.312 .059 372.688 .059 372.062 .059 371.031 .059 370.453 .012V.652C372.438 .652 372.438 1.824 372.438 2.434V13.918ZM364.109 .309"/>
<path d="M387.074 .105C387.074-.332 387.043-.363 386.902-.363 386.746-.363 386.699-.27 386.605-.035L385.855 1.59C384.918 .23 383.48-.395 381.918-.395 379.387-.395 377.355 1.621 377.355 4.152 377.355 4.918 377.527 6.012 378.371 7.043 379.293 8.184 380.152 8.387 382.137 8.902 382.887 9.105 384.121 9.418 384.371 9.527 385.777 10.121 386.527 11.605 386.527 12.996 386.527 14.777 385.262 16.684 383.105 16.684 380.449 16.684 377.98 15.199 377.809 11.73 377.777 11.34 377.746 11.309 377.574 11.309 377.387 11.309 377.355 11.34 377.355 11.824V16.84C377.355 17.277 377.387 17.309 377.527 17.309 377.699 17.309 377.746 17.184 378.105 16.418 378.121 16.34 378.121 16.293 378.59 15.34 379.84 16.98 381.918 17.324 383.105 17.324 385.809 17.324 387.715 15.074 387.715 12.449 387.715 11.152 387.246 10.168 386.965 9.715 385.934 8.137 384.809 7.84 383.621 7.543 383.449 7.465 383.402 7.465 382.012 7.121 380.668 6.777 380.105 6.605 379.48 5.934 378.793 5.168 378.543 4.371 378.543 3.574 378.543 1.965 379.84 .199 381.934 .199 384.559 .199 386.199 2.059 386.574 5.168 386.652 5.605 386.668 5.637 386.84 5.637 387.074 5.637 387.074 5.559 387.074 5.137ZM387.074 .105"/>
</g>
</g>
<g clip-path="url(#clip_22)">
<g clip-path="url(#clip_23)">
<path d="M406.691 13.09H406.254C406.004 14.855 405.801 15.152 405.707 15.293 405.582 15.496 403.801 15.496 403.457 15.496H398.691C399.582 14.527 401.316 12.777 403.426 10.746 404.941 9.309 406.691 7.621 406.691 5.168 406.691 2.246 404.363 .559 401.77 .559 399.035 .559 397.379 2.949 397.379 5.184 397.379 6.152 398.098 6.277 398.395 6.277 398.645 6.277 399.379 6.137 399.379 5.262 399.379 4.496 398.738 4.277 398.395 4.277 398.254 4.277 398.098 4.293 398.004 4.34 398.473 2.246 399.91 1.199 401.426 1.199 403.582 1.199 404.988 2.902 404.988 5.168 404.988 7.324 403.723 9.184 402.316 10.793L397.379 16.371V16.934H406.098ZM406.691 13.09"/>
</g>
</g>
<g clip-path="url(#clip_24)">
<g clip-path="url(#clip_25)">
<path d="M630.918 .746C630.746 .465 630.715 .449 630.246 .449H627.105V1.09H627.574C628.559 1.09 629.012 1.215 629.09 1.246V14.949C629.09 15.559 629.09 16.73 627.105 16.73V17.371C627.668 17.324 628.715 17.324 629.34 17.324 629.949 17.324 630.996 17.324 631.559 17.371V16.73C629.574 16.73 629.574 15.559 629.574 14.949V1.59C629.762 1.73 629.762 1.777 629.934 2.027L639.121 17.074C639.293 17.371 639.371 17.371 639.496 17.371 639.746 17.371 639.746 17.293 639.746 16.824V2.871C639.746 2.262 639.746 1.09 641.73 1.09V.449C641.152 .496 640.121 .496 639.496 .496 638.871 .496 637.84 .496 637.262 .449V1.09C639.246 1.09 639.246 2.262 639.246 2.871V14.355ZM630.918 .746"/>
<path d="M653.883 .543C653.883 .105 653.852 .074 653.711 .074 653.555 .074 653.508 .168 653.414 .402L652.664 2.027C651.727 .668 650.289 .043 648.727 .043 646.195 .043 644.164 2.059 644.164 4.59 644.164 5.355 644.336 6.449 645.18 7.48 646.102 8.621 646.961 8.824 648.945 9.34 649.695 9.543 650.93 9.855 651.18 9.965 652.586 10.559 653.336 12.043 653.336 13.434 653.336 15.215 652.07 17.121 649.914 17.121 647.258 17.121 644.789 15.637 644.617 12.168 644.586 11.777 644.555 11.746 644.383 11.746 644.195 11.746 644.164 11.777 644.164 12.262V17.277C644.164 17.715 644.195 17.746 644.336 17.746 644.508 17.746 644.555 17.621 644.914 16.855 644.93 16.777 644.93 16.73 645.398 15.777 646.648 17.418 648.727 17.762 649.914 17.762 652.617 17.762 654.523 15.512 654.523 12.887 654.523 11.59 654.055 10.605 653.773 10.152 652.742 8.574 651.617 8.277 650.43 7.98 650.258 7.902 650.211 7.902 648.82 7.559 647.477 7.215 646.914 7.043 646.289 6.371 645.602 5.605 645.352 4.809 645.352 4.012 645.352 2.402 646.648 .637 648.742 .637 651.367 .637 653.008 2.496 653.383 5.605 653.461 6.043 653.477 6.074 653.648 6.074 653.883 6.074 653.883 5.996 653.883 5.574ZM653.883 .543"/>
</g>
</g>
<g clip-path="url(#clip_26)">
<g clip-path="url(#clip_27)">
<path d="M668.66 8.949C670.863 8.949 671.832 10.855 671.832 13.059 671.832 16.027 670.238 17.168 668.801 17.168 667.488 17.168 665.363 16.527 664.691 14.621 664.816 14.668 664.941 14.668 665.066 14.668 665.66 14.668 666.098 14.277 666.098 13.637 666.098 12.918 665.551 12.59 665.066 12.59 664.645 12.59 663.988 12.793 663.988 13.699 663.988 15.98 666.223 17.762 668.848 17.762 671.598 17.762 673.707 15.605 673.707 13.09 673.707 10.684 671.723 8.949 669.363 8.668 671.254 8.277 673.066 6.59 673.066 4.34 673.066 2.402 671.113 .996 668.879 .996 666.613 .996 664.645 2.371 664.645 4.355 664.645 5.23 665.285 5.371 665.598 5.371 666.129 5.371 666.566 5.059 666.566 4.418 666.566 3.762 666.129 3.449 665.598 3.449 665.504 3.449 665.379 3.449 665.285 3.496 666.004 1.855 667.957 1.559 668.832 1.559 669.691 1.559 671.332 1.98 671.332 4.355 671.332 5.059 671.223 6.293 670.395 7.387 669.645 8.355 668.801 8.402 667.988 8.48 667.863 8.48 667.285 8.527 667.191 8.527 667.02 8.543 666.91 8.574 666.91 8.746 666.91 8.918 666.941 8.949 667.441 8.949ZM668.66 8.949"/>
</g>
</g>
<path d="M53.477 106.93C54.055 105.961 54.602 105.039 56.086 104.898 56.305 104.867 56.523 104.852 56.523 104.445 56.523 104.18 56.305 104.18 56.227 104.18 56.18 104.18 56.008 104.227 54.367 104.227 53.633 104.227 52.867 104.18 52.148 104.18 51.992 104.18 51.695 104.18 51.695 104.648 51.695 104.867 51.898 104.898 52.039 104.898 52.539 104.914 53.336 105.07 53.336 105.836 53.336 106.164 53.227 106.336 52.977 106.758L46.211 118.602 45.32 105.695C45.32 105.383 45.602 104.914 46.992 104.898 47.305 104.898 47.555 104.898 47.555 104.43 47.555 104.18 47.305 104.18 47.18 104.18 46.32 104.18 45.398 104.227 44.508 104.227H43.227C42.852 104.227 42.398 104.18 42.023 104.18 41.883 104.18 41.586 104.18 41.586 104.648 41.586 104.898 41.758 104.898 42.18 104.898 43.32 104.898 43.32 104.914 43.414 106.43L43.492 107.32 37.07 118.602 36.164 105.805C36.164 105.539 36.164 104.914 37.836 104.898 38.117 104.898 38.383 104.898 38.383 104.445 38.383 104.18 38.164 104.18 38.008 104.18 37.148 104.18 36.227 104.227 35.336 104.227H34.055C33.68 104.227 33.227 104.18 32.867 104.18 32.711 104.18 32.414 104.18 32.414 104.648 32.414 104.898 32.617 104.898 32.961 104.898 34.117 104.898 34.148 105.039 34.195 105.836L35.289 121.055C35.32 121.477 35.336 121.617 35.633 121.617 35.883 121.617 35.93 121.523 36.164 121.148L43.539 108.242 44.461 121.055C44.477 121.477 44.508 121.617 44.805 121.617 45.055 121.617 45.133 121.492 45.32 121.148ZM53.477 106.93"/>
<path d="M64.09 105.059C63.559 105.168 63.277 105.543 63.277 105.918 63.277 106.34 63.605 106.48 63.84 106.48 64.324 106.48 64.715 106.059 64.715 105.543 64.715 104.996 64.184 104.512 63.324 104.512 62.637 104.512 61.84 104.824 61.121 105.871 60.996 104.965 60.309 104.512 59.621 104.512 58.949 104.512 58.605 105.027 58.402 105.402 58.105 106.027 57.855 107.059 57.855 107.152 57.855 107.215 57.918 107.309 58.043 107.309 58.184 107.309 58.199 107.277 58.293 106.887 58.559 105.855 58.887 104.855 59.574 104.855 59.98 104.855 60.105 105.152 60.105 105.652 60.105 106.027 59.934 106.699 59.809 107.23L59.34 109.09C59.262 109.418 59.074 110.199 58.98 110.512 58.871 110.949 58.684 111.762 58.684 111.84 58.684 112.09 58.871 112.277 59.121 112.277 59.309 112.277 59.637 112.152 59.746 111.809 59.793 111.668 60.434 109.074 60.543 108.684 60.621 108.293 60.73 107.934 60.809 107.559 60.887 107.324 60.949 107.043 60.996 106.824 61.059 106.668 61.512 105.824 61.949 105.449 62.152 105.246 62.605 104.855 63.309 104.855 63.59 104.855 63.855 104.902 64.09 105.059ZM64.09 105.059"/>
<g clip-path="url(#clip_28)">
<g clip-path="url(#clip_29)">
<path d="M58.594 116.227C58.594 115.867 58.578 115.852 58.344 115.852 57.672 116.648 56.656 116.914 55.688 116.945 55.641 116.945 55.547 116.945 55.531 116.977 55.516 117.023 55.516 117.055 55.516 117.414 56.047 117.414 56.938 117.305 57.625 116.898V125.977C57.625 126.57 57.594 126.773 56.109 126.773H55.594V127.227C56.422 127.211 57.281 127.195 58.109 127.195 58.938 127.195 59.797 127.211 60.625 127.227V126.773H60.109C58.625 126.773 58.594 126.586 58.594 125.977ZM58.594 116.227"/>
</g>
</g>
</g>
</svg>
