<svg xmlns="http://www.w3.org/2000/svg" xmlns:xlink="http://www.w3.org/1999/xlink" version="1.1" width="960pt" height="396pt" viewBox="0 0 960 396">
<defs>
<clipPath id="clip_0">
<path transform="matrix(1,0,0,-1,0,396)" d="M0 0H960V396H0Z"/>
</clipPath>
<clipPath id="clip_1">
<path transform="matrix(1,0,0,-1,0,396)" d="M0 0H960V396H0Z"/>
</clipPath>
<clipPath id="clip_2">
<path transform="matrix(1,0,0,-1,0,396)" d="M0 0H960V396H0Z"/>
</clipPath>
<clipPath id="clip_3">
<path transform="matrix(1,0,0,-1,0,396)" d="M0 0H960V396H0Z"/>
</clipPath>
<clipPath id="clip_4">
<path transform="matrix(1,0,0,-1,0,396)" d="M0 0H960V396H0Z"/>
</clipPath>
<clipPath id="clip_5">
<path transform="matrix(1,0,0,-1,0,396)" d="M0 0H960V396H0Z"/>
</clipPath>
<clipPath id="clip_6">
<path transform="matrix(1,0,0,-1,0,396)" d="M0 0H960V396H0Z"/>
</clipPath>
<clipPath id="clip_7">
<path transform="matrix(1,0,0,-1,0,396)" d="M0 0H960V396H0Z"/>
</clipPath>
<clipPath id="clip_8">
<path transform="matrix(1,0,0,-1,0,396)" d="M0 0H960V396H0Z"/>
</clipPath>
<clipPath id="clip_9">
<path transform="matrix(1,0,0,-1,0,396)" d="M0 0H960V396H0Z"/>
</clipPath>
<clipPath id="clip_10">
<path transform="matrix(1,0,0,-1,0,396)" d="M0 0H960V396H0Z"/>
</clipPath>
<clipPath id="clip_11">
<path transform="matrix(1,0,0,-1,0,396)" d="M0 0H960V396H0Z"/>
</clipPath>
<clipPath id="clip_12">
<path transform="matrix(1,0,0,-1,0,396)" d="M0 0H960V396H0Z"/>
</clipPath>
</defs>
<g id="layer_1" data-name="">
<path transform="matrix(1,0,0,-1,0,396)" d="M0 0H960V396H0Z" fill="#ffffff"/>
</g>
<g clip-path="url(#clip_0)">
<text xml:space="preserve" transform="matrix(1 0 -0 1 0 396)" font-size="24" font-family="TimesNewRomanPSMT"><tspan y="-370.6422" x="576.683 588.683 599.363 618.02297 628.70297 640.70297">demand</tspan></text>
</g>
<g clip-path="url(#clip_1)">
<path transform="matrix(1,0,0,-1,0,396)" stroke-width="4.5" stroke-linecap="butt" stroke-miterlimit="8" stroke-linejoin="miter" fill="none" stroke="#4472c4" d="M171.15 393.75H527.61V334.83003H171.15Z"/>
</g>
<text xml:space="preserve" transform="matrix(1 0 -0 1 0 396)" font-size="24" font-family="TimesNewRomanPSMT"><tspan y="-355.5636" x="203.4237 219.4317 230.11171 242.11171 254.11171 271.4397 278.0997 290.0997 296.7597 308.7597 314.6397 331.9677 342.6477 361.3077 371.9877 383.9877 395.9877 401.8677 416.50773 425.8677 432.5277 439.1877 457.84773 468.5277 475.1877 487.1877">Bandwidth Demand Estimator</tspan></text>
<path transform="matrix(1,0,0,-1,18.84,32.45999)" stroke-width="2.25" stroke-linecap="butt" stroke-miterlimit="8" stroke-linejoin="miter" fill="none" stroke="#000000" d="M0 0 149.744-.354"/>
<path transform="matrix(1,0,0,-1,161.8437,28.860199)" stroke-width="2.25" stroke-linecap="round" stroke-miterlimit="8" stroke-linejoin="miter" fill="none" stroke="#000000" d="M0 0 6.74-3.954-.019-7.875"/>
<path transform="matrix(1,0,0,-1,527.94,32.640016)" stroke-width="2.25" stroke-linecap="butt" stroke-miterlimit="8" stroke-linejoin="miter" fill="none" stroke="#000000" d="M0 0 175.19-.218"/>
<path transform="matrix(1,0,0,-1,696.3849,28.911286)" stroke-width="2.25" stroke-linecap="round" stroke-miterlimit="8" stroke-linejoin="miter" fill="none" stroke="#000000" d="M0 0 6.745-3.946-.01-7.875"/>
<g clip-path="url(#clip_2)">
<text xml:space="preserve" transform="matrix(1 0 -0 1 0 396)" font-size="24" font-family="TimesNewRomanPSMT"><tspan y="-372.4065" x="42.7829 49.4429 57.4229 68.102909 75.6629 83.6429 90.302898 100.982898 106.86289 116.22289 122.8829 133.5629 140.2229">traffic state</tspan></text>
</g>
<text xml:space="preserve" transform="matrix(1 0 -0 1 0 396)" font-size="24" font-family="TimesNewRomanPSMT"><tspan y="-335.3045" x="73.5398">X</tspan></text>
<text xml:space="preserve" transform="matrix(1 0 -0 1 0 396)" font-size="16.02" font-family="TimesNewRomanPSMT"><tspan y="-329.3645" x="90.8798">1</tspan></text>
<text xml:space="preserve" transform="matrix(1 0 -0 1 0 396)" font-size="24" font-family="TimesNewRomanPSMT"><tspan y="-335.3045" x="98.9198 106.899799 113.55979">(t)</tspan><tspan y="-333.7685" x="590.4158">W</tspan></text>
<text xml:space="preserve" transform="matrix(1 0 -0 1 0 396)" font-size="16.02" font-family="TimesNewRomanPSMT"><tspan y="-327.8283" x="613.0974">1</tspan></text>
<text xml:space="preserve" transform="matrix(1 0 -0 1 0 396)" font-size="24" font-family="TimesNewRomanPSMT"><tspan y="-333.7683" x="621.1373 629.1173 635.7773">(t)</tspan><tspan y="-217.15232" x="578.0813 590.0813 600.7613 619.42129 630.10128 642.10128">demand</tspan></text>
<path transform="matrix(1,0,0,-1,0,396)" stroke-width="4.5" stroke-linecap="butt" stroke-miterlimit="8" stroke-linejoin="miter" fill="none" stroke="#4472c4" d="M172.53 240.69H528.99V180.81H172.53Z"/>
<text xml:space="preserve" transform="matrix(1 0 -0 1 0 396)" font-size="24" font-family="TimesNewRomanPSMT"><tspan y="-202.0323" x="204.819 220.827 231.507 243.507 255.507 272.835 279.495 291.495 298.155 310.155 316.035 333.363 344.043 362.703 373.383 385.383 397.383 403.263 417.903 427.263 433.923 440.583 459.243 469.923 476.583 488.583">Bandwidth Demand Estimator</tspan></text>
<path transform="matrix(1,0,0,-1,19.56,183.18)" stroke-width="2.25" stroke-linecap="butt" stroke-miterlimit="8" stroke-linejoin="miter" fill="none" stroke="#000000" d="M0 0 149.744-.354"/>
<path transform="matrix(1,0,0,-1,162.5637,179.5802)" stroke-width="2.25" stroke-linecap="round" stroke-miterlimit="8" stroke-linejoin="miter" fill="none" stroke="#000000" d="M0 0 6.74-3.954-.019-7.875"/>
<path transform="matrix(1,0,0,-1,529.32,187.56)" stroke-width="2.25" stroke-linecap="butt" stroke-miterlimit="8" stroke-linejoin="miter" fill="none" stroke="#000000" d="M0 0 175.19-.218"/>
<path transform="matrix(1,0,0,-1,697.7649,183.8313)" stroke-width="2.25" stroke-linecap="round" stroke-miterlimit="8" stroke-linejoin="miter" fill="none" stroke="#000000" d="M0 0 6.745-3.946-.01-7.875"/>
<text xml:space="preserve" transform="matrix(1 0 -0 1 0 396)" font-size="24" font-family="TimesNewRomanPSMT"><tspan y="-221.7088" x="42.5205 49.1805 57.1605 67.8405 75.4005 83.38049 90.04049 100.72049 106.60049 115.96049 122.62049 133.30049 139.9605">traffic state</tspan><tspan y="-183.9088" x="74.6805">X</tspan></text>
<text xml:space="preserve" transform="matrix(1 0 -0 1 0 396)" font-size="16.02" font-family="TimesNewRomanPSMT"><tspan y="-177.9692" x="92.0127">i</tspan></text>
<text xml:space="preserve" transform="matrix(1 0 -0 1 0 396)" font-size="24" font-family="TimesNewRomanPSMT"><tspan y="-183.9092" x="96.4528 104.43279 111.0928">(t)</tspan><tspan y="-178.19719" x="590.2288">W</tspan></text>
<text xml:space="preserve" transform="matrix(1 0 -0 1 0 396)" font-size="16.02" font-family="TimesNewRomanPSMT"><tspan y="-172.2469" x="611.9586">i</tspan></text>
<text xml:space="preserve" transform="matrix(1 0 -0 1 0 396)" font-size="24" font-family="TimesNewRomanPSMT"><tspan y="-178.1869" x="616.3986 624.3786 631.0386">(t)</tspan><tspan y="-71.074909" x="580.5186 592.5186 603.1986 621.8586 632.5386 644.5386">demand</tspan></text>
<path transform="matrix(1,0,0,-1,0,396)" stroke-width="4.5" stroke-linecap="butt" stroke-miterlimit="8" stroke-linejoin="miter" fill="none" stroke="#4472c4" d="M171.15 95.55H527.61V36.690004H171.15Z"/>
<text xml:space="preserve" transform="matrix(1 0 -0 1 0 396)" font-size="24" font-family="TimesNewRomanPSMT"><tspan y="-57.3956" x="203.4236 219.4316 230.1116 242.1116 254.1116 271.4396 278.0996 290.0996 296.7596 308.7596 314.63963 331.96763 342.6476 361.30763 371.9876 383.9876 395.9876 401.8676 416.50764 425.8676 432.52763 439.18763 457.84764 468.52763 475.18763 487.18763">Bandwidth Demand Estimator</tspan></text>
<path transform="matrix(1,0,0,-1,18.12,328.26)" stroke-width="2.25" stroke-linecap="butt" stroke-miterlimit="8" stroke-linejoin="miter" fill="none" stroke="#000000" d="M0 0 149.744-.354"/>
<path transform="matrix(1,0,0,-1,161.1237,324.6601)" stroke-width="2.25" stroke-linecap="round" stroke-miterlimit="8" stroke-linejoin="miter" fill="none" stroke="#000000" d="M0 0 6.74-3.954-.019-7.875"/>
<path transform="matrix(1,0,0,-1,527.94,332.64)" stroke-width="2.25" stroke-linecap="butt" stroke-miterlimit="8" stroke-linejoin="miter" fill="none" stroke="#000000" d="M0 0 175.19-.218"/>
<path transform="matrix(1,0,0,-1,696.3849,328.91133)" stroke-width="2.25" stroke-linecap="round" stroke-miterlimit="8" stroke-linejoin="miter" fill="none" stroke="#000000" d="M0 0 6.745-3.946-.01-7.875"/>
<text xml:space="preserve" transform="matrix(1 0 -0 1 0 396)" font-size="24" font-family="TimesNewRomanPSMT"><tspan y="-76.5927" x="42.0852 48.7452 56.7252 67.405208 74.9652 82.9452 89.6052 100.2852 106.1652 115.5252 122.1852 132.8652 139.5252">traffic state</tspan><tspan y="-38.528699" x="74.2452">X</tspan></text>
<text xml:space="preserve" transform="matrix(1 0 -0 1 0 396)" font-size="16.02" font-family="TimesNewRomanPSMT"><tspan y="-32.5919" x="91.5774">n</tspan></text>
<text xml:space="preserve" transform="matrix(1 0 -0 1 0 396)" font-size="24" font-family="TimesNewRomanPSMT"><tspan y="-38.5319" x="99.6174 107.5974 114.25739">(t)</tspan><tspan y="-36.4679" x="590.4174">W</tspan></text>
<text xml:space="preserve" transform="matrix(1 0 -0 1 0 396)" font-size="16.02" font-family="TimesNewRomanPSMT"><tspan y="-30.5294" x="613.0972">n</tspan></text>
<text xml:space="preserve" transform="matrix(1 0 -0 1 0 396)" font-size="24" font-family="TimesNewRomanPSMT"><tspan y="-36.4695" x="621.1372 629.1172 635.77719">(t)</tspan></text>
<g clip-path="url(#clip_3)">
<path transform="matrix(1,0,0,-1,0,396)" stroke-width="4.5" stroke-linecap="butt" stroke-miterlimit="8" stroke-linejoin="miter" fill="none" stroke="#4472c4" d="M705.99 392.85H835.47V35.429994H705.99Z"/>
</g>
<text xml:space="preserve" transform="matrix(1 0 -0 1 0 396)" font-size="24" font-family="TimesNewRomanPSMT"><tspan y="-219.8333" x="755.377 772.705">NS</tspan><tspan y="-191.0333" x="714.049 735.409 747.409 754.069 760.72897 767.3889 779.3889 786.0489 796.7289 808.7289 819.3489">Multiplexer</tspan></text>
<g clip-path="url(#clip_4)">
<text xml:space="preserve" transform="matrix(1 0 -0 1 0 396)" font-size="24" font-family="TimesNewRomanPSMT"><tspan y="-371.1822" x="854.0727 866.0727 876.7527 887.4327 894.09268 903.45266 910.1126 922.1126">decision</tspan></text>
</g>
<path transform="matrix(1,0,0,-1,834.54,32.640016)" stroke-width="2.25" stroke-linecap="butt" stroke-miterlimit="8" stroke-linejoin="miter" fill="none" stroke="#000000" d="M0 0 115.19-.216"/>
<path transform="matrix(1,0,0,-1,942.9874,28.90561)" stroke-width="2.25" stroke-linecap="round" stroke-miterlimit="8" stroke-linejoin="miter" fill="none" stroke="#000000" d="M0 0 6.742-3.95-.015-7.875"/>
<text xml:space="preserve" transform="matrix(1 0 -0 1 0 396)" font-size="24" font-family="TimesNewRomanPSMT"><tspan y="-336.6448" x="869.928">u</tspan></text>
<text xml:space="preserve" transform="matrix(1 0 -0 1 0 396)" font-size="16.02" font-family="TimesNewRomanPSMT"><tspan y="-330.7048" x="881.928">1</tspan></text>
<text xml:space="preserve" transform="matrix(1 0 -0 1 0 396)" font-size="24" font-family="TimesNewRomanPSMT"><tspan y="-336.6448" x="889.968 897.948 904.608">(t)</tspan><tspan y="-218.7328" x="852.408 864.408 875.088 885.768 892.428 901.78799 908.44796 920.44796">decision</tspan></text>
<path transform="matrix(1,0,0,-1,836.46,187.56)" stroke-width="2.25" stroke-linecap="butt" stroke-miterlimit="8" stroke-linejoin="miter" fill="none" stroke="#000000" d="M0 0 115.19-.216"/>
<path transform="matrix(1,0,0,-1,944.9075,183.8256)" stroke-width="2.25" stroke-linecap="round" stroke-miterlimit="8" stroke-linejoin="miter" fill="none" stroke="#000000" d="M0 0 6.742-3.95-.015-7.875"/>
<text xml:space="preserve" transform="matrix(1 0 -0 1 0 396)" font-size="24" font-family="TimesNewRomanPSMT"><tspan y="-180.3658" x="869.2303">u</tspan></text>
<text xml:space="preserve" transform="matrix(1 0 -0 1 0 396)" font-size="16.02" font-family="TimesNewRomanPSMT"><tspan y="-174.4258" x="881.2303">i</tspan></text>
<text xml:space="preserve" transform="matrix(1 0 -0 1 0 396)" font-size="24" font-family="TimesNewRomanPSMT"><tspan y="-180.3658" x="885.6703 893.65029 900.31027">(t)</tspan><tspan y="-71.4538" x="854.5183 866.5183 877.1983 887.8783 894.53829 903.89828 910.5582 922.5582">decision</tspan></text>
<path transform="matrix(1,0,0,-1,835.5,333.36)" stroke-width="2.25" stroke-linecap="butt" stroke-miterlimit="8" stroke-linejoin="miter" fill="none" stroke="#000000" d="M0 0 114.928-.216"/>
<path transform="matrix(1,0,0,-1,943.6852,329.6256)" stroke-width="2.25" stroke-linecap="round" stroke-miterlimit="8" stroke-linejoin="miter" fill="none" stroke="#000000" d="M0 0 6.742-3.951-.015-7.875"/>
<text xml:space="preserve" transform="matrix(1 0 -0 1 0 396)" font-size="24" font-family="TimesNewRomanPSMT"><tspan y="-35.9472" x="870.3634">u</tspan></text>
<text xml:space="preserve" transform="matrix(1 0 -0 1 0 396)" font-size="16.02" font-family="TimesNewRomanPSMT"><tspan y="-30.0072" x="882.3634">n</tspan></text>
<text xml:space="preserve" transform="matrix(1 0 -0 1 0 396)" font-size="24" font-family="TimesNewRomanPSMT"><tspan y="-35.9472" x="890.4034 898.38339 905.04336">(t)</tspan></text>
<g clip-path="url(#clip_5)">
<text xml:space="preserve" transform="matrix(1 0 -0 1 0 396)" font-size="24" font-family="CambriaMath"><tspan y="-279.3108" x="341.76">&#x22ee;</tspan></text>
<text xml:space="preserve" transform="matrix(1 0 -0 1 0 396)" font-size="24" font-family="CambriaMath"><tspan y="-279.3108" x="341.76">&#x22ee;</tspan></text>
</g>
<g clip-path="url(#clip_6)">
<text xml:space="preserve" transform="matrix(1 0 -0 1 0 396)" font-size="24" font-family="CambriaMath"><tspan y="-129.7321" x="341.76">&#x22ee;</tspan></text>
<text xml:space="preserve" transform="matrix(1 0 -0 1 0 396)" font-size="24" font-family="CambriaMath"><tspan y="-129.7321" x="341.76">&#x22ee;</tspan></text>
</g>
<g clip-path="url(#clip_7)">
<text xml:space="preserve" transform="matrix(1 0 -0 1 0 396)" font-size="24" font-family="CambriaMath"><tspan y="-279.3061" x="83.3386">&#x22ee;</tspan></text>
<text xml:space="preserve" transform="matrix(1 0 -0 1 0 396)" font-size="24" font-family="CambriaMath"><tspan y="-279.3061" x="83.3386">&#x22ee;</tspan></text>
</g>
<g clip-path="url(#clip_8)">
<text xml:space="preserve" transform="matrix(1 0 -0 1 0 396)" font-size="24" font-family="CambriaMath"><tspan y="-129.8091" x="80.0997">&#x22ee;</tspan></text>
<text xml:space="preserve" transform="matrix(1 0 -0 1 0 396)" font-size="24" font-family="CambriaMath"><tspan y="-129.8091" x="80.0997">&#x22ee;</tspan></text>
</g>
<g clip-path="url(#clip_9)">
<text xml:space="preserve" transform="matrix(1 0 -0 1 0 396)" font-size="24" font-family="CambriaMath"><tspan y="-279.3109" x="615.0638">&#x22ee;</tspan></text>
<text xml:space="preserve" transform="matrix(1 0 -0 1 0 396)" font-size="24" font-family="CambriaMath"><tspan y="-279.3109" x="615.0638">&#x22ee;</tspan></text>
</g>
<g clip-path="url(#clip_10)">
<text xml:space="preserve" transform="matrix(1 0 -0 1 0 396)" font-size="24" font-family="CambriaMath"><tspan y="-129.8091" x="613.7932">&#x22ee;</tspan></text>
<text xml:space="preserve" transform="matrix(1 0 -0 1 0 396)" font-size="24" font-family="CambriaMath"><tspan y="-129.8091" x="613.7932">&#x22ee;</tspan></text>
</g>
<g clip-path="url(#clip_11)">
<text xml:space="preserve" transform="matrix(1 0 -0 1 0 396)" font-size="24" font-family="CambriaMath"><tspan y="-279.748" x="891.0614">&#x22ee;</tspan></text>
<text xml:space="preserve" transform="matrix(1 0 -0 1 0 396)" font-size="24" font-family="CambriaMath"><tspan y="-279.748" x="891.0614">&#x22ee;</tspan></text>
</g>
<g clip-path="url(#clip_12)">
<text xml:space="preserve" transform="matrix(1 0 -0 1 0 396)" font-size="24" font-family="CambriaMath"><tspan y="-129.8091" x="889.8772">&#x22ee;</tspan></text>
<text xml:space="preserve" transform="matrix(1 0 -0 1 0 396)" font-size="24" font-family="CambriaMath"><tspan y="-129.8091" x="889.8772">&#x22ee;</tspan></text>
</g>
</svg>
